<?xml version="1.0" encoding="utf-8"?>
<!-- Generator: Adobe Illustrator 16.0.0, SVG Export Plug-In . SVG Version: 6.00 Build 0)  -->
<!DOCTYPE svg PUBLIC "-//W3C//DTD SVG 1.1//EN" "http://www.w3.org/Graphics/SVG/1.1/DTD/svg11.dtd">
<svg version="1.1" id="Слой_6" xmlns="http://www.w3.org/2000/svg" xmlns:xlink="http://www.w3.org/1999/xlink" x="0px" y="0px"
	 width="500px" height="500px" viewBox="0 0 500 500" enable-background="new 0 0 500 500" xml:space="preserve">
<g>
	<path fill-rule="evenodd" clip-rule="evenodd" fill="#4B8691" d="M369.242,416.184c-12.566,8.343-25.975,15.253-38.983,22.84
		c-17.467,10.188-35.096,20.097-52.646,30.139c-16.563,9.477-33.853,10.181-50.458,1.475
		c-21.995-11.531-43.257-24.463-64.831-36.797c-28.47-16.277-56.996-32.457-85.383-48.877
		c-18.397-10.642-29.051-26.07-28.973-48.067c0.133-37.65,0.034-75.301,0.044-112.952c0-1.996,0.11-3.991,0.169-5.987
		c1.904-1.853,3.744-0.742,5.434,0.271c15.215,9.116,30.182,18.637,45.307,27.901c2.354,1.441,3.879,4.19,7,4.432
		c4.168,2.937,6.351,7.586,9.687,11.253c11.969,13.153,26.8,20.901,44.269,23.76c1.801,0.295,3.637,0.408,5.244,1.411
		c4.396,4.384,10.432,6.126,15.421,9.57c4.313,2.978,9.1,5.32,12.34,9.668c1.09,9.957,0.346,19.946,0.503,29.92
		c0.143,9.057,0.464,9.458,9.721,9.445c3.162-0.004,6.289-0.119,9.421-0.797c6.629-1.436,11.631-4.764,14.219-11.241
		c0.56-1.4,1.221-2.748,2.646-3.517c2.568-1.195,4.389,0.543,6.38,1.611c0.673,0.515,1.066,1.223,1.396,2.001
		c4.873,11.474,8.37,13.604,20.812,12.69c7.607,2.187,13.968,6.8,20.552,10.888c28.931,17.964,57.943,35.795,86.879,53.752
		C367.403,412.213,369.605,413.238,369.242,416.184z"/>
	<path fill-rule="evenodd" clip-rule="evenodd" fill="#7AADB6" d="M139.038,81.212c29.374-16.832,58.24-34.581,88.319-50.135
		c16.206-8.38,33.106-7.951,49.053,0.991c32.417,18.179,64.576,36.819,96.824,55.298c17.044,9.766,34.025,19.641,51.083,29.381
		c19.666,11.229,29.816,27.875,29.705,50.743c-0.178,36.489-0.141,72.979-0.194,109.468c-1.556,1.135-3.071,0.912-4.616-0.067
		c-16.087-10.198-32.229-20.312-48.263-30.593c-0.421-0.27-0.697-0.7-0.96-1.129c-0.808-1.844-0.195-3.626,0.366-5.347
		c11.312-34.642-10.108-66.487-39.113-78.204c-26.149-10.563-51.486-7.577-75.842,6.059c-1.865,1.044-3.519,2.575-5.835,2.625
		c-13.067-5.596-24.44-14.119-36.477-21.472c-31.678-19.353-63.158-39.031-94.773-58.489c-2.413-1.485-4.749-3.083-7.105-4.652
		C139.617,84.629,138.228,83.448,139.038,81.212z"/>
	<path fill-rule="evenodd" clip-rule="evenodd" fill="#68A3AE" d="M401.118,245.02c8.378,2.634,15.042,8.313,22.391,12.747
		c10.239,6.178,20.226,12.774,30.319,19.191c0.033,21.16,0.761,42.349-0.106,63.473c-0.793,19.325-11.291,33.742-27.556,43.521
		c-18.133,10.901-36.73,21.031-55.133,31.484c-0.559,0.317-1.192,0.502-1.791,0.748c-35.106-21.72-70.213-43.439-105.319-65.161
		c-1.867-1.155-3.863-1.936-6.063-2.146c-0.217-2.752,2.084-3.163,3.823-3.891c5.751-2.403,8.436-6.944,8.748-12.86
		c0.403-7.647,0.202-15.315,0.079-22.974c-0.029-1.812-0.104-4.242-2.434-4.27c-2.765-0.032-2.558,2.62-2.606,4.549
		c-0.149,5.826-0.028,11.656-0.074,17.483c-0.021,2.667-0.149,5.305-0.845,7.918c-1.677,6.302-5.169,8.861-11.61,8.337
		c-5.484-0.446-9.051-4.353-9.256-10.355c-0.232-6.824-0.058-13.653-0.101-20.48c-0.01-1.498,0.076-3.006-0.175-4.487
		c-0.292-1.726-0.879-3.414-3.001-3.344c-2.106,0.069-2.694,1.809-2.821,3.523c-0.38,5.152-0.1,10.319-0.182,15.479
		c-0.037,2.329,0.066,4.667-0.386,6.972c-0.24,1.222-0.852,2.152-2.103,2.547c-1.589-0.664-3.179-1.328-4.768-1.993
		c-1.919-0.826-2.039-2.425-1.788-4.179c0.559-3.901-0.418-7.637-1.415-11.322c-1.197-4.432-3.982-7.741-8.283-9.396
		c-7.131-2.743-14.596-3.081-22.142-2.572c-2.125,0.144-3.371,2.129-5.405,2.39c-9.03-5.681-18.059-11.36-27.088-17.04
		c1.648-3.046,4.645-2.276,7.129-2.206c11.947,0.34,23.562-1.079,34.679-5.703c14.866-6.185,26.394-16.473,35.979-29.166
		c1.904-2.521,3.729-5.111,5.863-7.444c2.882-3.15,5.676-3.133,8.253,0.348c3.37,4.549,7.088,8.805,10.59,13.236
		c28.364,35.897,81.293,35.924,110.579,13.34c7.846-6.05,14.508-13.18,19.115-22.083
		C397.247,247.238,398.057,244.754,401.118,245.02z"/>
	<path fill-rule="evenodd" clip-rule="evenodd" fill="#68A3AE" d="M139.038,81.212c11.682,8.283,24.144,15.335,36.29,22.881
		c33.232,20.645,66.561,41.134,99.83,61.721c1.391,0.861,2.558,2.085,3.828,3.14c1.184,2.263-0.532,3.48-1.888,4.564
		c-7.866,6.283-14.414,13.78-20.59,21.672c-3.939,5.034-6.204,4.923-10.064-0.184c-11.565-15.302-25.27-28.069-43.737-34.349
		c-26.602-9.047-52.336-7.403-75.703,9.306c-24.48,17.506-33.441,46.23-22.121,75.295c0.849,2.181,2.769,4.502,0.051,6.772
		c-9.342-4.399-17.68-10.489-26.501-15.765c-10.116-6.051-20.172-12.201-30.253-18.308c-0.049-19.982-0.918-40.007,0.104-59.935
		c0.87-16.975,10.521-30.089,24.651-38.761C94.595,105.968,116.968,93.836,139.038,81.212z"/>
	<path fill-rule="evenodd" clip-rule="evenodd" fill="#FEFEFE" d="M104.935,252.03c-0.123-0.637-0.115-1.336-0.386-1.9
		c-18.013-37.41,0.696-74.746,34.376-90.042c30.492-13.849,68.857-7.273,94.142,16.428c5.843,5.477,11.235,11.372,15.864,17.906
		c1.826,2.578,2.795,3.603,5.143,0.236c6.896-9.885,15.413-18.294,24.913-25.705c16.579-11.465,35.005-16.782,55.076-15.906
		c35.589,1.553,63.928,24.794,70.435,55.278c2.702,12.659,0.995,24.762-3.378,36.693c-19.672,49.709-107.19,68.563-149.518-2.015
		c-3.281,4.27-6.42,8.432-9.638,12.529c-19.1,24.323-43.887,35.894-74.948,33.375c-0.989-0.081-1.99-0.002-2.986,0.003
		c-8.236-1.727-16.498-3.188-24.292-6.711c-13.194-5.962-23.971-14.646-32.019-26.702
		C106.897,254.271,105.867,253.184,104.935,252.03z"/>
	<path fill-rule="evenodd" clip-rule="evenodd" fill="#E9F2F4" d="M191.116,305.952c-0.097-3.362,0.947-5.176,4.896-4.789
		c4.941,0.483,9.978,0.026,14.911,0.559c14.511,1.566,21.236,10.162,19.797,24.875c-0.145,1.483-0.379,2.957-0.572,4.436
		c-3.424,11.195-10.487,16.616-22.248,16.944c-4.149,0.116-8.32-0.204-12.451,0.095c-3.451,0.25-4.121-1.114-4.103-4.279
		C191.419,331.18,191.217,318.565,191.116,305.952z"/>
	<path fill-rule="evenodd" clip-rule="evenodd" fill="#E9F2F4" d="M187.485,347.662c-11.984,1.017-11.912,0.98-16.848-8.896
		c-1.531-3.063-2.254-6.726-5.505-8.709c-3.438-2.098-5.064-1.223-5.119,2.773c-0.054,3.994-0.146,7.994,0.016,11.982
		c0.197,4.857-3.384,2.991-5.572,3.103c-2.163,0.109-5.166,1.31-5.116-3.117c0.153-13.48,0.073-26.964-0.021-40.445
		c-0.017-2.443,0.953-3.229,3.26-3.134c6.312,0.262,12.642-0.221,18.939,0.728c6.862,1.032,10.797,4.239,12.016,10.102
		c1.125,5.411-0.693,9.149-6.911,12.855c-2.271,1.353-1.159,1.945-0.204,3.235C180.772,334.018,183.447,340.818,187.485,347.662z"/>
	<path fill-rule="evenodd" clip-rule="evenodd" fill="#E9F2F4" d="M123.126,301.542c5.687-1.785,7.718,0.983,9.234,6.232
		c3.538,12.247,7.734,24.311,11.911,36.363c1.137,3.281,0.406,3.822-2.846,3.972c-5.086,0.235-9.298-0.066-9.554-6.561
		c-0.012-0.316-0.114-0.758-0.335-0.92c-4.75-3.477-10.159-0.836-15.214-1.593c-2.588-0.387-2.599,1.875-3.356,3.467
		c-0.957,2.01-0.037,5.129-3.777,5.553c-8.268,0.936-8.627,0.615-6.08-7.143c3.625-11.038,7.541-21.995,10.69-33.167
		C115.292,302.447,117.473,299.799,123.126,301.542z"/>
	<path fill-rule="evenodd" clip-rule="evenodd" fill="#E9F2F4" d="M234.916,333.024c0.052-8.815,0.397-17.644,0.036-26.442
		c-0.191-4.652,1.49-5.528,5.698-5.489c4.006,0.038,5.565,0.951,5.398,5.272c-0.333,8.64-0.155,17.302-0.068,25.954
		c0.056,5.554,2.523,8.258,7.523,8.607c5.291,0.369,8.537-2.024,8.831-7.757c0.469-9.127,0.42-18.292,0.245-27.434
		c-0.064-3.413,0.707-4.962,4.352-4.543c2.925,0.335,6.517-1.135,6.244,4.32c-0.366,7.303-0.099,14.638-0.101,21.96
		c-0.004,13.705-2.561,17.304-15.215,21.403c-2.494-0.016-5.021,0.217-7.478-0.092C240.444,347.539,236.837,343.782,234.916,333.024
		z"/>
	<path fill-rule="evenodd" clip-rule="evenodd" fill="#F4F8F8" d="M391.032,160.144c-0.092,1.511,0.295,3.119-0.869,4.975
		c-1.81-2.246-0.638-5.111-3.004-6.629c2.236-0.745,4.008-0.545,5.78-0.34C393.456,159.916,391.353,159.177,391.032,160.144z"/>
	<path fill-rule="evenodd" clip-rule="evenodd" fill="#ECF3F4" d="M391.032,160.144c0.636-0.665,1.271-1.33,1.907-1.994
		c2.096-0.406,3.176,0.443,3.199,2.594c0.556,1.274-0.114,2.08-1.06,2.782c-1.598,2.687-1.704,0.41-1.921-0.645
		C392.888,161.56,393.397,159.787,391.032,160.144z"/>
	<path fill-rule="evenodd" clip-rule="evenodd" fill="#F8FBFB" d="M397.902,160.84c0.143-1.137,0.323-2.989,1.654-2.426
		c2.32,0.982,1.396,3.509,1.057,5.259c-0.309,1.589-1.279,0.997-1.714-0.253C398.019,162.772,397.313,162.056,397.902,160.84z"/>
	<path fill-rule="evenodd" clip-rule="evenodd" fill="#EAF2F3" d="M397.902,160.84c0.332,0.859,0.664,1.719,0.997,2.58
		c-1.229,1.686-2.512,1.394-3.82,0.104c0.353-0.925,0.706-1.853,1.06-2.78C396.727,160.775,397.314,160.808,397.902,160.84z"/>
	<path fill-rule="evenodd" clip-rule="evenodd" fill="#E9F2F4" d="M332.731,318.778c0,8.063-0.198,16.131,0.086,24.183
		c0.136,3.869-0.872,5.201-4.942,5.188c-3.987-0.014-5.063-1.211-4.987-5.119c0.238-12.327,0.212-24.664,0.007-36.992
		c-0.06-3.634,0.872-4.704,4.684-4.959c5.797-0.387,9.042,1.46,11.33,6.94c3.175,7.603,7.289,14.813,12.037,22.046
		c0-7.861,0.224-15.732-0.091-23.581c-0.166-4.125,1.028-5.351,5.238-5.418c4.648-0.075,4.584,2.277,4.555,5.594
		c-0.105,12.162-0.237,24.33,0.067,36.485c0.104,4.177-1.41,4.757-5.118,5.007c-5.534,0.372-8.722-1.192-10.93-6.635
		c-3.199-7.884-7.444-15.345-11.243-22.985C333.193,318.613,332.962,318.696,332.731,318.778z"/>
	<path fill-rule="evenodd" clip-rule="evenodd" fill="#E9F2F4" d="M405.975,324.721c0.013,17.646-11.553,27.403-27.49,23.337
		c-6.193-1.579-10.277-5.403-12.271-11.28c-2.4-7.079-2.642-14.372-0.496-21.566c3.237-10.855,11.579-15.678,24.115-14.206
		c9.154,1.074,15.449,8.559,16.129,19.228C406.057,321.723,405.975,323.225,405.975,324.721z"/>
	<path fill-rule="evenodd" clip-rule="evenodd" fill="#E9F2F4" d="M297.579,301.236c4.329-0.002,8.662,0.129,12.983-0.05
		c2.725-0.113,4.03,0.612,3.811,3.595c-0.179,2.439,0.028,4.455-3.548,4.559c-7.78,0.225-7.77,0.418-7.761,8.027
		c0.007,5.66,0.338,11.348-0.108,16.972c-0.377,4.753,1.358,6.245,5.834,5.699c3.165-0.387,6.078-0.31,5.586,4.426
		c-0.253,2.431-0.837,3.597-3.493,3.565c-8.822-0.103-17.647-0.133-26.468,0.015c-3.262,0.054-3.261-1.788-3.338-4.151
		c-0.086-2.646,0.62-3.848,3.583-3.96c7.959-0.302,7.947-0.445,7.937-8.378c-0.008-5.493-0.352-11.018,0.114-16.472
		c0.43-5.051-1.488-6.563-6.182-5.873c-3.299,0.485-5.958,0.156-5.496-4.488c0.252-2.53,0.999-3.578,3.563-3.513
		C288.921,301.318,293.251,301.238,297.579,301.236z"/>
	<path fill-rule="evenodd" clip-rule="evenodd" fill="#68A3AE" d="M176.217,265.044c-16.775,0.101-30.211-4.211-41.006-15.204
		c-20.41-20.784-14.349-53.233,12.445-66.92c21.442-10.953,48.622-6.709,67.159,10.451c7.754,7.178,13.968,15.612,19.988,24.216
		c1.021,1.459,1.634,2.738,0.426,4.493c-7.647,11.107-15.051,22.393-25.57,31.154C199.469,261.722,187.772,265.587,176.217,265.044z
		"/>
	<path fill-rule="evenodd" clip-rule="evenodd" fill="#68A3AE" d="M378.865,229.997c-3.832,17.038-19.329,30.753-37.824,34.048
		c-25.201,4.488-45.163-3.76-60.333-24.107c-4.178-5.604-8.171-11.347-12.204-17.057c-0.926-1.311-2.073-2.515-0.745-4.436
		c9.136-13.215,18.668-26.026,33.029-34.175c0.992-0.563,2.136-0.858,3.209-1.278c8.995,1.698,15.576,7.885,23.008,12.469
		c1.47,0.907,2.153,2.547,1.086,4.357c-4.027,1.667-6.279,4.313-5.953,9.052c0.23,3.34-1.91,5.114-5.273,5.365
		c-1.657,0.123-3.333,0.06-4.969,0.4c-2.33,0.484-3.31,2.064-3.328,4.318c-0.02,2.239,0.883,3.857,3.219,4.399
		c0.487,0.113,0.986,0.141,1.48,0.205c7.78,0.997,7.834,0.989,9.163,8.95c0.423,2.537,1.631,3.914,4.23,3.958
		c2.714,0.045,4.456-1.115,4.828-3.94c0.151-1.155,0.195-2.32,0.291-3.48c0.277-3.368,2.106-5.08,5.458-5.288
		c1.493-0.093,2.996-0.089,4.479-0.297c2.58-0.362,3.735-1.956,3.72-4.474c-0.016-2.519-1.199-4.089-3.773-4.439
		c-1.813-0.247-3.658-0.142-5.465-0.47c-2.445-0.443-3.71-2.02-4.178-4.363c0.665-7.938,3.361-9.284,10.099-5.242
		c10.244,6.146,20.228,12.716,30.531,18.765C375.395,224.845,378.015,226.622,378.865,229.997z"/>
	<path fill-rule="evenodd" clip-rule="evenodd" fill="#7BADB6" d="M327.987,198.903c-6.315-3.979-12.643-7.942-18.941-11.947
		c-1.809-1.15-3.809-2.081-5.049-3.964c27.525-14.018,65.089-3.193,74.285,26.362c2.12,6.812,2.576,13.701,0.583,20.643
		c-12.687-7.824-25.394-15.612-38.048-23.488c-5.07-3.156-5.016-3.243-6.624,2.474c-0.859-0.188-1.785-0.654-1.849-1.458
		C332.069,204.021,329.587,201.697,327.987,198.903z"/>
	<path fill-rule="evenodd" clip-rule="evenodd" fill="#4B8792" d="M219.041,322.996c1.021,11.263-3.56,16.998-13.365,17.057
		c-2.747,0.017-3.805-0.711-3.727-3.6c0.211-7.786,0.16-15.579,0.212-23.37c3.287-2.14,5.373,0.815,7.915,1.852
		c1.585,2.428,4.306,3.279,6.6,4.725C217.914,320.453,218.092,321.996,219.041,322.996z"/>
	<path fill-rule="evenodd" clip-rule="evenodd" fill="#68A4AF" d="M219.041,322.996c-1.015-0.662-2.029-1.324-3.044-1.986
		c-1.586-2.632-3.594-4.531-6.988-4.021c-2.282-1.302-4.564-2.604-6.847-3.905c-0.333-2.024-0.172-3.373,2.54-3.561
		C214.398,308.854,219.038,313.106,219.041,322.996z"/>
	<path fill-rule="evenodd" clip-rule="evenodd" fill="#4C8893" d="M159.808,315.449c1.038-2.188-1.898-6.226,3.447-6.042
		c6.263,0.216,9.396,1.982,9.444,5.745c0.049,3.93-3.701,6.265-9.6,6.308C157.726,321.499,161.002,317.398,159.808,315.449z"/>
	<path fill-rule="evenodd" clip-rule="evenodd" fill="#4D8893" d="M122.775,311.881c2.018,6.46,3.565,11.476,5.156,16.478
		c0.603,1.896,0.116,2.523-2,2.712c-9.181,0.816-9.458,0.579-6.793-7.882C120.178,319.884,121.258,316.591,122.775,311.881z"/>
	<path fill-rule="evenodd" clip-rule="evenodd" fill="#68A4AE" d="M394.946,324.376c0.188,3.676-0.126,6.993-1.37,10.125
		c-1.513,3.811-4.367,5.599-8.549,5.553c-4.003-0.045-6.79-1.813-8.027-5.487c-2.18-6.476-2.254-13.077-0.058-19.581
		c1.342-3.973,4.518-5.714,8.509-5.66c4.039,0.054,6.96,2.104,8.274,6.025C394.737,318.367,395.193,321.494,394.946,324.376z"/>
	<path fill-rule="evenodd" clip-rule="evenodd" fill="#FED864" d="M174.924,213.892c6.993,0,13.994,0.206,20.975-0.081
		c3.881-0.159,4.452,1.672,4.18,4.799c-0.229,2.643,0.966,5.701-3.862,5.624c-14.481-0.23-28.971-0.233-43.452,0.004
		c-4.73,0.077-3.793-2.824-3.967-5.561c-0.194-3.065,0.211-5.017,4.152-4.867C160.265,214.091,167.598,213.891,174.924,213.892z"/>
	<path fill-rule="evenodd" clip-rule="evenodd" fill="#FED864" d="M327.987,198.903c5.341-0.782,6.839,1.866,6.078,6.686
		c-0.173,1.098,0.074,2.261,0.128,3.394c-0.209,1.574-0.317,3.096,1.923,3.179c0.83,0.031,1.661,0.01,2.492,0.015
		c9.794,0.053,9.717,0.051,9.441,9.914c-0.073,2.597-0.538,3.977-3.573,3.916c-3.263-0.065-7.28-1.495-9.627,0.662
		c-2.222,2.043-0.609,5.993-0.703,9.093c-0.071,2.323-0.871,3.42-3.232,3.204c-0.329-0.03-0.664-0.012-0.996-0.004
		c-9.804,0.234-9.914,0.237-10.134-9.413c-0.065-2.85-1.005-3.952-3.787-3.681c-1.318,0.129-2.69-0.151-3.981,0.077
		c-5.087,0.897-6.586-1.093-6.276-6.185c0.523-8.634-1.076-7.899,7.807-7.465c5.164,0.252,7.101-1.293,6.151-6.342
		c-0.091-0.483,0.052-1.011-0.046-1.491c-0.912-4.496,0.979-6.116,5.361-5.399C325.97,199.22,326.994,198.967,327.987,198.903z"/>
	<path fill-rule="evenodd" clip-rule="evenodd" fill="#79ACB5" d="M209.008,316.988c6.349-2.1,7.435-1.475,6.989,4.021
		C213.319,320.275,211.298,318.397,209.008,316.988z"/>
</g>
</svg>
