<?xml version="1.0" encoding="utf-8"?>
<!-- Generator: Adobe Illustrator 16.0.0, SVG Export Plug-In . SVG Version: 6.00 Build 0)  -->
<!DOCTYPE svg PUBLIC "-//W3C//DTD SVG 1.1//EN" "http://www.w3.org/Graphics/SVG/1.1/DTD/svg11.dtd">
<svg version="1.1" id="Слой_7" xmlns="http://www.w3.org/2000/svg" xmlns:xlink="http://www.w3.org/1999/xlink" x="0px" y="0px"
	 width="500px" height="500px" viewBox="0 0 500 500" enable-background="new 0 0 500 500" xml:space="preserve">
<g>
	<path fill-rule="evenodd" clip-rule="evenodd" fill="#4B8691" d="M369.509,416.335c-12.544,8.328-25.928,15.226-38.913,22.799
		c-17.435,10.169-35.032,20.061-52.551,30.084c-16.533,9.46-33.792,10.162-50.367,1.472c-21.956-11.51-43.179-24.417-64.714-36.729
		c-28.418-16.248-56.893-32.398-85.228-48.789c-18.365-10.622-28.999-26.021-28.921-47.98c0.133-37.581,0.034-75.164,0.044-112.746
		c0-1.992,0.11-3.984,0.169-5.977c1.918-1.84,3.748-0.708,5.444,0.3c14.559,8.658,28.866,17.728,43.248,26.672
		c2.279,1.417,4.737,3.023,5.999,5.699c0.681,6.139,0.637,12.271,0.023,18.404c-0.021,0.585-0.042,1.17-0.049,1.755
		c0.013,0.583,0.026,1.166,0.052,1.748c0.559,5.204,0.655,10.406-0.065,15.603c-0.045,0.813-0.066,1.63-0.048,2.442
		c0.933,5.38,0.317,10.848,1.072,16.276c1.886,13.568,7.77,25.104,16.857,35.154c4.809,3.827,9.692,7.551,15.152,10.445
		c4.462,2.653,9.471,3.716,14.419,4.924c1.593,0.39,3.281,0.396,4.771,1.216c4.395,0.03,8.769-0.371,13.166-0.186
		c3.229,0.137,5.703,1.15,7.068,4.208c6.154,6.964,11.638,14.477,17.438,21.736c4.983,6.236,8.889,6.117,14.021,0.031
		c5.357-6.353,9.606-13.53,15.117-19.748c1.074-0.864,2.089-1.789,2.921-2.905c0.745-0.649,1.407-1.384,2.195-1.99
		c0.483-0.238,0.984-0.393,1.516-0.467c0.83-0.126,1.652-0.265,2.479-0.416c6.542-0.974,13.093-0.511,19.643-0.222
		c6.255-0.251,12.514-0.802,18.737,0.274c0.528,0.105,1.066,0.212,1.597,0.313c10.61-0.522,18.971,5.017,27.423,10.262
		c22.278,13.828,44.582,27.61,66.891,41.387C368.022,412.562,369.833,413.684,369.509,416.335z"/>
	<path fill-rule="evenodd" clip-rule="evenodd" fill="#7AADB6" d="M139.721,81.97c29.321-16.801,58.134-34.519,88.159-50.044
		c16.177-8.365,33.046-7.937,48.964,0.989c32.358,18.146,64.459,36.752,96.649,55.198c17.013,9.749,33.963,19.605,50.99,29.328
		c19.63,11.208,29.763,27.825,29.651,50.651c-0.178,36.423-0.141,72.846-0.194,109.27c-1.765,1.301-3.376,0.717-5.031-0.312
		c-14.719-9.151-29.186-18.7-43.956-27.773c-2.101-1.29-4.45-2.835-5.678-5.315c-0.646-3.946-0.589-7.886,0.03-11.824
		c0.057-0.842,0.085-1.686,0.073-2.529c-0.026-0.557-0.051-1.114-0.088-1.671c-0.607-4.413-0.729-8.828-0.029-13.24
		c0.045-0.531,0.089-1.065,0.121-1.597c0.011-0.522,0.021-1.048,0.018-1.571c-0.023-0.512-0.048-1.029-0.083-1.542
		c-1.029-5.414-0.07-10.93-0.896-16.372c-2.003-13.217-7.576-24.637-16.866-34.243c-0.491-0.521-0.965-1.062-1.477-1.562
		c-4.33-3.792-9.291-6.687-14.071-9.848c-6.184-2.186-12.439-4.097-18.882-5.382c-6.72-1.158-13.455-0.446-20.181-0.209
		c-1.307,0.046-2.604,0.503-3.907-0.026c-2.874-1.425-5.836-0.138-8.752-0.24c-7.723-0.271-15.469,0.366-23.175-0.571
		c-0.599-0.01-1.199-0.019-1.798-0.015c-4.725,0.418-9.453,0.893-14.186,0.063c-0.595-0.027-1.189-0.053-1.785-0.065
		c-0.602,0.007-1.201,0.016-1.802,0.038c-6.67,0.776-13.346,0.599-20.024,0.206c-6.219,0.213-12.446,0.854-18.632-0.332
		c-10.095-4.268-19.17-10.355-28.437-16.106c-20.301-12.599-40.698-25.043-60.894-37.811
		C141.591,86.272,138.72,85.382,139.721,81.97z"/>
	<path fill-rule="evenodd" clip-rule="evenodd" fill="#68A3AE" d="M139.721,81.97c11.935,8.392,24.646,15.548,36.99,23.29
		c18.253,11.449,36.541,22.842,54.814,34.259c-0.262,0.564-0.664,0.998-1.205,1.304c-5.272,2.056-10.693,1.162-16.088,0.821
		c-0.607-0.016-1.214-0.03-1.822-0.03c-0.613,0.021-1.225,0.042-1.838,0.076c-8.734,0.677-17.477,0.485-26.212,0.146
		c-1.832-0.071-3.598-0.267-5.333,0.437c-7.688-0.192-15.379-0.458-23.063-0.04c-6.363,1.86-12.856,3.316-19.056,5.722
		c-4.996,3.645-10.491,6.602-15.058,10.851c-0.496,0.513-0.961,1.051-1.44,1.579c-10.605,11.914-16.1,25.816-16.254,41.787
		c-0.021,2.173-0.083,4.415,2.344,5.589c5.833,1.388,11.662,2.373,17.698,2.314c14.756-0.144,29.514-0.072,44.271-0.02
		c2.091,0.007,4.361-0.549,6.146,1.194c0.502,2.643-1.441,3.03-3.246,3.365c-2.295,0.425-4.64,0.316-6.966,0.32
		c-16.958,0.026-33.915-0.026-50.872,0.027c-8.098,0.025-9.031,0.976-9.383,9.206c-0.072,1.664-0.305,3.309-0.41,4.969
		c-0.026,0.945-0.022,1.888,0.021,2.833c0.513,4.473,0.522,8.957,0.25,13.437c-0.119,1.959-0.103,4.091-2.424,5.038
		c-16.072-9.872-32.142-19.749-48.224-29.604c-1.402-0.86-2.888-1.583-4.334-2.37c-0.048-19.946-0.916-39.935,0.104-59.826
		c0.868-16.944,10.502-30.035,24.606-38.691C95.358,106.682,117.691,94.572,139.721,81.97z"/>
	<path fill-rule="evenodd" clip-rule="evenodd" fill="#68A3AE" d="M401.376,244.463c17.521,10.966,35.044,21.933,52.565,32.899
		c0.033,21.121,0.76,42.271-0.106,63.357c-0.791,19.29-11.271,33.681-27.506,43.441c-18.1,10.882-36.663,20.993-55.032,31.428
		c-0.558,0.316-1.19,0.501-1.788,0.746c-27.91-17.27-55.87-34.46-83.68-51.891c-4.329-2.713-9.069-1.371-13.436-2.771
		c0.061-0.259,0.122-0.517,0.184-0.775c0.335-0.429,0.756-0.742,1.263-0.942c0.522-0.135,1.043-0.268,1.564-0.401
		c4.048-1.079,8.119-0.773,12.197-0.225c0.557,0.031,1.112,0.06,1.671,0.076c0.567-0.005,1.132-0.011,1.701-0.03
		c0.581-0.037,1.156-0.074,1.735-0.12c8.336-0.771,16.68-0.457,25.018-0.202c1.479,0.045,2.919,0.319,4.303-0.391
		c6.614,0.01,13.232,0.135,19.843,0.44c1.498,0.068,2.96,0.398,4.38-0.3c6.985-0.851,13.688-2.725,20.086-5.671
		c5.266-3.157,10.501-6.361,15.047-10.556c11.649-12.594,17.895-27.296,17.456-44.615c-0.05-1.994,0.135-3.972,0.494-5.937
		c0.03-0.515,0.06-1.027,0.076-1.544c-0.005-0.524-0.011-1.046-0.029-1.57c-0.038-0.534-0.074-1.064-0.122-1.598
		c-0.655-4.372-0.613-8.74,0.022-13.11c0.028-0.568,0.056-1.132,0.069-1.702c-0.008-0.584-0.015-1.163-0.036-1.749
		c-0.038-0.605-0.079-1.203-0.136-1.806c-0.688-6.518-0.419-13.044-0.219-19.564C399.021,247.46,399.073,245.363,401.376,244.463z"
		/>
	<path fill-rule="evenodd" clip-rule="evenodd" fill="#FE346E" d="M101.586,250.442c0.11-6.319,0.22-12.638,0.33-18.958
		c2.005-2.145,4.648-1.463,7.062-1.466c36.233-0.044,72.466-0.016,108.699-0.049c2.933-0.003,6.073,0.549,8.313-2.167
		c0.638-0.566,1.253-1.155,1.659-1.931c1.314-5.683,2.434-11.351,2.404-17.234c-0.091-17.467-0.17-34.937,0.055-52.402
		c0.064-4.991-2.323-9.79-0.862-14.823c0.308-0.567,0.703-1.068,1.176-1.507c0.368-0.129,0.736-0.258,1.104-0.388
		c6.653,0.132,13.306,0.264,19.958,0.396c1.726,1.116,2.135,2.843,2.257,4.739c0.128,1.992,0.158,3.984,0.158,5.978
		c0.013,66.63,0.029,133.259-0.044,199.89c-0.004,3.698,0.964,7.758-2.352,10.799c-6.992,0.467-13.984,0.438-20.977,0.018
		c-1.89-1.869-1.425-4.281-1.5-6.562c-0.711-21.508,1.563-42.969,1.008-64.476c-0.133-5.157-0.805-10.192-2.692-15.008
		c-0.463-0.392-0.896-0.802-1.376-1.168c-2.273-2.693-5.41-2.188-8.345-2.19c-36.212-0.035-72.425-0.004-108.637-0.049
		c-2.415-0.003-5.053,0.661-7.065-1.461C101.808,263.765,101.697,257.104,101.586,250.442z"/>
	<path fill-rule="evenodd" clip-rule="evenodd" fill="#CB2451" d="M251.503,361.32c-0.007-73.802-0.014-147.604-0.021-221.406
		c6.969-0.029,13.938-0.058,20.906-0.087c0.396,0.508,0.585,1.084,0.568,1.728c-0.034,25.384-0.021,50.77,0.002,76.154
		c0.002,3.13-0.309,6.343,1.519,9.179c0.414,0.44,0.819,0.882,1.263,1.288c2.914,2.19,6.325,1.79,9.614,1.792
		c36.21,0.036,72.42,0.005,108.629,0.049c2.414,0.003,5.054-0.669,7.06,1.467c0.111,4.326,0.222,8.652,0.333,12.978
		c-0.111,8.655-0.223,17.309-0.333,25.964c-2.012,2.115-4.646,1.456-7.059,1.459c-36.17,0.043-72.34,0.015-108.51,0.048
		c-3.287,0.003-6.681-0.417-9.654,1.563c-0.432,0.428-0.862,0.853-1.252,1.317c-1.944,2.817-1.603,6.046-1.608,9.174
		c-0.037,23.418-0.002,46.835-0.039,70.253c-0.004,2.436,0.542,5.046-1.48,7.086C264.794,361.733,258.148,361.744,251.503,361.32z"
		/>
	<path fill-rule="evenodd" clip-rule="evenodd" fill="#FEFEFE" d="M175.442,365.249c-2.199-3.155-5.195-3.93-8.969-3.738
		c-4.108,0.209-8.256-0.368-12.388-0.603c-1.582-3.316,1.123-4.901,2.888-6.678c16.851-16.967,33.82-33.815,50.682-50.771
		c2.66-2.675,5.944-4.9,7.127-8.792c0.258-0.61,0.529-1.223,0.675-1.872c0.6-2.677,1.028-5.62-1.604-7.243
		c-2.643-1.629-5.071-0.052-7.078,1.934c-1.97,1.278-3.509,3.035-5.147,4.675c-19.572,19.598-39.258,39.08-58.744,58.763
		c-2.142,2.163-4.241,4.247-7.626,3.911c-5.407-2.682-10.372-5.972-14.454-10.48c-1.184-3.423,1.328-5.211,3.269-7.168
		c13.316-13.424,26.736-26.744,40.05-40.17c1.283-1.295,3.586-2.178,2.751-4.738c-1.689-2.084-4.032-1.351-6.081-1.359
		c-17.605-0.07-35.211-0.021-52.818-0.06c-2.103-0.004-4.385,0.502-6.072-1.407c0.005-5.783,0.009-11.566,0.014-17.351
		c1.694-0.971,3.562-0.671,5.367-0.672c39.206-0.019,78.413-0.019,117.619,0c1.806,0.001,3.67-0.294,5.377,0.625
		c1.665,5.945,0.327,12.006,0.691,18.001c-1.014,8.788-0.182,17.608-0.452,26.412c-0.961,13.84-0.051,27.725-1.004,41.565
		c-0.081,1.165-0.138,2.309-0.759,3.339c-0.183,0.071-0.293,0.202-0.334,0.394c-4.817,1.622-9.782,0.92-14.693,0.864
		c-3.103-0.034-4.165-2.13-4.385-4.912c-0.352-4.438-0.073-8.887-0.344-13.305c-1.151-2.619,1.061-5.508-0.648-8.037
		c-2.119,0.215-3.001,2.021-4.242,3.246c-7.62,7.531-15.226,15.077-22.765,22.69C179.711,363.962,178.119,365.695,175.442,365.249z"
		/>
	<path fill-rule="evenodd" clip-rule="evenodd" fill="#5C7BF6" d="M171.635,293.015c-16.129,16.085-32.264,32.163-48.374,48.267
		c-0.922,0.921-1.643,2.043-2.457,3.072c-12.194-11.153-17.793-25.356-18.984-41.512c-0.28-3.798,0.045-7.641,0.092-11.463
		c1.546-1.355,3.443-0.979,5.225-0.981c19.858-0.028,39.716-0.061,59.573,0.054C168.542,290.461,171.656,289.029,171.635,293.015z"
		/>
	<path fill-rule="evenodd" clip-rule="evenodd" fill="#FE346E" d="M217.929,296.555c-17.187,17.325-34.373,34.65-51.561,51.976
		c-4.093,4.127-8.188,8.252-12.283,12.378c-6.649-0.867-12.954-2.805-18.827-6.075c14.364-14.246,28.752-28.47,43.083-42.75
		c8.893-8.862,17.698-17.813,26.542-26.723c3.417-1.642,7.051-0.812,10.598-0.896c1.816-0.044,2.576,1.016,2.565,2.807
		C218.03,290.365,218.05,293.461,217.929,296.555z"/>
	<path fill-rule="evenodd" clip-rule="evenodd" fill="#5C7BF6" d="M211.388,342.244c0.021,4.925,0.311,9.867-0.021,14.767
		c-0.26,3.841,1.18,4.843,4.754,4.643c4.085-0.229,8.2,0.051,12.302,0.11c-0.254,0.979-1.013,1.373-1.89,1.63
		c-2.658-1.229-5.479-0.366-7.843-0.645c1.092,0.001,2.56,0.096,4.01-0.019c3.601-0.285,3.464,1.271,1.874,3.622
		c-5.166,6.845-10.267,13.739-15.516,20.519c-5.586,7.216-11.346,7.188-16.974-0.023c-5.591-7.166-11.098-14.396-16.642-21.599
		c11.139-11.318,22.278-22.637,33.418-33.955c2.471-0.862,2.095,0.975,2.187,2.329C211.244,336.493,210.671,339.394,211.388,342.244
		z"/>
	<path fill-rule="evenodd" clip-rule="evenodd" fill="#5072F6" d="M171.635,293.015c-1.497-2.265-3.847-1.606-5.917-1.61
		c-21.269-0.041-42.538-0.025-63.806-0.025c-0.003-0.643-0.006-1.285-0.009-1.929c22.67,0.007,45.34-0.001,68.009,0.054
		c1.183,0.003,2.874-0.78,3.47,0.911C173.841,291.714,172.757,292.5,171.635,293.015z"/>
	<path fill-rule="evenodd" clip-rule="evenodd" fill="#FE346E" d="M230.502,272.461c-1.98-0.119-3.961-0.343-5.942-0.344
		c-40.881-0.021-81.762-0.016-122.643-0.017c-0.055-0.289-0.038-0.575,0.052-0.856c1.278-0.523,2.621-0.32,3.937-0.32
		c40.145-0.01,80.29-0.01,120.435,0.001c1.312,0.001,2.662-0.237,3.921,0.373l0.29,0.199c0.296,0.23,0.388,0.45,0.274,0.658
		C230.715,272.359,230.608,272.461,230.502,272.461z"/>
	<path fill-rule="evenodd" clip-rule="evenodd" fill="#FE275B" d="M230.262,271.298c-42.764-0.018-85.528-0.034-128.292-0.052
		c-0.163-0.267-0.18-0.539-0.051-0.821c40.68-0.003,81.359-0.012,122.039,0.009C226.081,270.435,228.3,270.002,230.262,271.298z"/>
	<path fill-rule="evenodd" clip-rule="evenodd" fill="#FE3466" d="M230.502,272.461c0.021-0.322,0.037-0.644,0.05-0.966
		c0.918,1.299,0.966,2.791,0.965,4.295c-0.007,14.603,0.744,29.256-0.24,43.793c-0.943,13.943-0.326,27.843-0.75,41.755
		c-0.59,0.011-1.181,0.021-1.771,0.033c0.308-15.022,0.616-30.044,0.924-45.065c0.763-6.871,0.124-13.766,0.348-20.645
		c0.064-1.955-0.329-3.949,0.446-5.851C229.813,284.026,230.474,278.244,230.502,272.461z"/>
	<path fill-rule="evenodd" clip-rule="evenodd" fill="#CC243E" d="M271.44,361.327c0.002-27.706-0.006-55.412,0.021-83.117
		c0.002-2.286-0.454-4.68,1.045-6.751c0.528,0.417,0.903,0.942,1.126,1.577c0.68,7.445,0.257,14.906,0.283,22.358
		c0.071,19.729,0.04,39.458,0.005,59.187c-0.004,2.277,0.446,4.695-1.346,6.633c-0.149,0.117-0.209,0.27-0.18,0.458
		C272.076,361.558,271.758,361.441,271.44,361.327z"/>
	<path fill-rule="evenodd" clip-rule="evenodd" fill="#496AF4" d="M224.574,366.353c0.494-2.563-0.883-3.178-3.102-3.113
		c-2.617,0.077-5.238,0.019-7.847-0.349c4.318-0.29,8.678-1.438,12.909,0.502C226.459,364.764,225.717,365.69,224.574,366.353z"/>
	<path fill-rule="evenodd" clip-rule="evenodd" fill="#BFCDED" d="M367.565,146.735c5.331,2.233,9.9,5.557,13.898,9.7
		c-0.262,1.918-1.402,3.329-2.681,4.664c-9.302,9.702-19.207,18.809-28.503,28.503c-6.388,6.659-13.84,12.329-19.015,20.087
		c0.114,0.353,0.234,0.7,0.444,1.022c0.386,0.264,0.741,0.508,1.159,0.706c2.454,0.798,4.959,0.591,7.435,0.594
		c18.062,0.022,36.121-0.009,54.183,0.036c2.255,0.005,4.704-0.566,6.566,1.407c0.006,5.016,0.012,10.031,0.018,15.047
		c-1.538,1.704-3.609,1.471-5.579,1.472c-38.691,0.024-77.383,0.024-116.073-0.001c-1.805-0.001-3.687,0.225-5.263-1.024
		c-1.565-1.646-1.189-3.73-1.192-5.681c-0.032-25.745-0.03-51.491-0.008-77.236c0.002-2.141-0.228-4.365,1.43-6.133
		c4.999-0.039,9.999-0.078,15-0.117c0.359,0.402,0.593,0.867,0.699,1.394c0.006,9.345-0.859,18.708,0.497,27.986
		c0.221,0.193,0.471,0.379,0.761,0.464c0.513-0.039,0.944-0.255,1.365-0.551c8.058-9.324,17.168-17.585,25.826-26.291
		c1.325-1.333,3.068-1.938,4.952-2.075c8.37-1.685,16.736-1.512,25.102,0.032c1.22,3.57-1.768,5.104-3.618,6.976
		c-19.247,19.459-38.718,38.695-58.034,58.083c-3.85,4.065-4.063,6.68-0.896,11.156c3.028,1.428,6.034,1.45,9.014-0.104
		c0.313-0.307,0.618-0.616,0.882-0.968c0.343-0.61,0.821-1.086,1.392-1.475c9.055-8.266,17.501-17.146,26.181-25.788
		c12.671-12.618,25.232-25.346,37.936-37.932C363.205,148.94,364.875,147.047,367.565,146.735z"/>
	<path fill-rule="evenodd" clip-rule="evenodd" fill="#37417E" d="M382.172,157.451c12.146,10.441,17.532,24.164,18.938,39.681
		c0.401,4.436-0.02,8.946-0.063,13.422c-1.535,1.711-3.607,1.449-5.57,1.452c-19.727,0.027-39.452,0.032-59.179-0.006
		c-1.788-0.003-3.691,0.281-5.168-1.154c-1.668-3.375,1.422-4.836,3.039-6.494c5.986-6.14,12.085-12.176,18.146-18.246
		c8.524-8.538,16.955-17.169,25.59-25.596C379.147,159.297,380.021,157.444,382.172,157.451z"/>
	<path fill-rule="evenodd" clip-rule="evenodd" fill="#CB2451" d="M367.565,146.735c-0.204,2.063-1.928,3.034-3.183,4.292
		c-18.262,18.307-36.545,36.593-54.846,54.862c-3.611,3.604-7.32,7.109-10.983,10.661c-4.68,2.214-9.446,1.958-14.255,0.512
		c-0.951-4.619-2.582-9.309,1.38-13.424c18.687-18.575,37.381-37.144,56.054-55.734c2.341-2.331,4.572-4.774,6.854-7.165
		C355.379,141.262,361.698,143.282,367.565,146.735z"/>
	<path fill-rule="evenodd" clip-rule="evenodd" fill="#37417E" d="M323.485,140.707c-9.991,9.976-19.983,19.951-29.976,29.926
		c-3.737,0.911-3.518-1.874-3.539-4.036c-0.085-8.365-0.163-16.733,0.034-25.099c0.025-0.632,0.167-1.236,0.429-1.812
		c9.292,0.009,18.582-0.014,27.873,0.058C320.057,139.758,321.993,139.157,323.485,140.707z"/>
	<path fill-rule="evenodd" clip-rule="evenodd" fill="#CB244D" d="M401.043,231.485c-40.75,0-81.501,0.028-122.252-0.09
		c-1.724-0.005-4.462,1.778-5.313-1.634c0.226-0.226,0.449-0.452,0.676-0.678c0.64-0.068,1.28-0.098,1.924-0.09
		c39.876-0.002,79.751-0.008,119.625,0.023c1.789,0.001,3.657-0.482,5.372,0.487C401.064,230.164,401.054,230.825,401.043,231.485z"
		/>
	<path fill-rule="evenodd" clip-rule="evenodd" fill="#BEDEF9" d="M401.075,229.503c-40.222-0.004-80.443-0.005-120.666-0.018
		c-1.991,0-3.982-0.096-5.974-0.146c-0.215-0.224-0.274-0.434-0.178-0.629c0.093-0.189,0.18-0.283,0.26-0.283
		c42.185,0.025,84.369,0.05,126.553,0.075C401.072,228.834,401.073,229.169,401.075,229.503z"/>
	<path fill-rule="evenodd" clip-rule="evenodd" fill="#CCDAF6" d="M382.172,157.451c-16.955,17.115-33.91,34.229-50.864,51.344
		c-0.807,0.792-1.019,2.498-2.787,1.806c-0.76-1.45,0.427-2.157,1.204-2.934c16.697-16.698,33.41-33.38,50.133-50.052
		c0.465-0.463,1.067-0.789,1.606-1.179C381.699,156.774,381.937,157.113,382.172,157.451z"/>
	<path fill-rule="evenodd" clip-rule="evenodd" fill="#C28EBF" d="M272.265,140.706c0.085-0.288,0.125-0.582,0.122-0.88
		c0.364,0.01,0.725,0.019,1.086,0.027c0.684,1.061,0.455,2.253,0.455,3.398c0.012,27.575,0.013,55.15-0.001,82.726
		c0,1.141,0.255,2.34-0.5,3.378l0.053,0.407c-0.301-0.141-0.615-0.234-0.943-0.281c-0.869-0.991-0.578-2.202-0.579-3.332
		c-0.014-27.667-0.014-55.333-0.011-82.999C271.946,142.32,271.94,141.492,272.265,140.706z"/>
	<path fill-rule="evenodd" clip-rule="evenodd" fill="#BDEBFE" d="M273.427,229.354c0.016-29.835,0.031-59.669,0.046-89.503
		c0.308-0.052,0.611-0.037,0.912,0.045c0.044,29.51,0.087,59.021,0.133,88.53c-0.034,0.303-0.063,0.607-0.082,0.912
		C274.1,229.344,273.764,229.349,273.427,229.354z"/>
	<path fill-rule="evenodd" clip-rule="evenodd" fill="#2B326E" d="M328.521,210.601c0.929-0.602,1.858-1.205,2.787-1.806
		c1.589,2.528,4.153,1.688,6.359,1.695c21.127,0.067,42.253,0.054,63.379,0.064c0.1,0.282,0.122,0.57,0.067,0.865
		c-1.346,1.327-3.071,1.088-4.709,1.09c-21.103,0.021-42.204,0.023-63.305-0.007c-1.617-0.002-3.366,0.371-4.724-0.985
		C328.374,211.204,328.422,210.898,328.521,210.601z"/>
	<path fill-rule="evenodd" clip-rule="evenodd" fill="#DCEAFE" d="M401.053,213.454c-22.817,0.019-45.636,0.039-68.455,0.055
		c-1.815,0.001-3.667,0.135-5.171-1.208c17.842-0.633,35.689-0.208,53.534-0.224c6.729-0.006,13.498-0.725,20.203,0.502
		C401.177,212.877,401.139,213.168,401.053,213.454z"/>
	<path fill-rule="evenodd" clip-rule="evenodd" fill="#6D7BAE" d="M401.164,212.579c-22.924-0.02-45.849-0.034-68.773-0.067
		c-1.654-0.002-3.31-0.138-4.964-0.211c0.315-0.261,0.633-0.522,0.949-0.784c24.246-0.033,48.491-0.066,72.737-0.098
		C401.13,211.805,401.147,212.192,401.164,212.579z"/>
	<path fill-rule="evenodd" clip-rule="evenodd" fill="#B5C3E5" d="M290.434,139.686c0.043,0.334,0.086,0.668,0.128,1.003
		c0.782,8.443,0.271,16.907,0.265,25.358c-0.002,2.765,1.283,5.573-0.082,8.322c-0.468,0.06-0.935,0.121-1.402,0.181
		c-0.66-11.285-0.777-22.569,0.048-33.852c0.005-0.307,0.003-0.614-0.005-0.919C289.734,139.749,290.083,139.717,290.434,139.686z"
		/>
	<path fill-rule="evenodd" clip-rule="evenodd" fill="#FEFEFE" d="M230.373,229.45c-0.612,0.07-1.223,0.139-1.834,0.208
		c-1.804,1.215-3.855,0.812-5.814,0.813c-38.354,0.024-76.708,0.026-115.062-0.003c-1.944-0.001-4.022,0.473-5.744-0.974
		c-0.055-4.139,0.123-8.298-0.232-12.411c-0.344-3.98,1.169-5.052,5.019-5.024c21.37,0.154,42.742,0.074,64.113,0.067
		c1.158,0,2.315-0.056,3.474-0.086c-0.174-1.559-1.745-1.22-2.571-1.893c-4.847-3.571-8.737-8.151-12.95-12.38
		c-11.136-11.179-22.358-22.272-33.474-33.47c-1.951-1.965-4.368-3.704-4.591-6.862c4.066-4.775,9.136-8.162,14.814-10.707
		c0.232,0.008,0.464,0.016,0.697,0.024c2.457,0.473,3.966,2.33,5.602,3.942c19.726,19.444,39.212,39.13,58.84,58.673
		c2.165,2.154,4.443,3.964,7.395,4.824c7.32,1.354,8.643-0.132,6.809-7.68c-0.509-1.064-1.192-2.006-2.024-2.827
		c-13.809-13.617-27.253-27.597-40.81-41.461c-5.566-5.692-11.129-11.397-16.676-17.115c-1.244-1.282-2.132-2.598-0.874-4.363
		c7.894-1.849,15.895-0.83,23.855-0.883c3.624,0.988,6.511,3.042,9.118,5.743c6.45,6.686,13.077,13.2,19.681,19.733
		c1.022,1.011,1.712,2.515,3.405,2.629c0.17-0.104,0.347-0.143,0.505-0.237c1.773-2.397,0.895-5.122,0.967-7.671
		c0.142-5.084,0.03-10.176,0.049-15.265c0.006-1.792-0.229-3.669,1.48-4.959c5.626,0.023,11.253,0.046,16.88,0.069
		c-0.017,0.282,0.053,0.541,0.21,0.775c0.56,1.092,0.379,2.271,0.38,3.42c0.009,27.184,0.013,54.367-0.012,81.55
		C230.998,226.929,231.424,228.326,230.373,229.45z"/>
	<path fill-rule="evenodd" clip-rule="evenodd" fill="#5C7BF6" d="M101.894,210.557c-1.199-17.193,2.018-33.186,12.942-47.028
		c1.417-1.795,3.162-3.331,4.755-4.987c2.138-0.584,2.832,1.354,3.887,2.403c15.326,15.231,30.618,30.497,45.795,45.875
		c0.88,0.892,4.325,1.798,1.258,4.19c-21.425,0.032-42.838,0.012-64.25-0.003C104.817,211.006,103.287,211.368,101.894,210.557z"/>
	<path fill-rule="evenodd" clip-rule="evenodd" fill="#FE346E" d="M154.48,140.746c1.086,2.947,3.984,4.19,6.016,6.217
		c19.177,19.13,37.407,39.195,57.078,57.835c0.513,0.716,0.446,1.544,0.468,2.361c0.269,9.855,0.27,9.855-9.624,9.854
		c-2.626,0.301-3.712-1.905-5.166-3.354c-20.905-20.838-41.762-41.725-62.646-62.584c-1.518-1.517-2.873-3.23-4.801-4.293
		l-0.284-0.052C141.389,143.304,147.695,141.266,154.48,140.746z"/>
	<path fill-rule="evenodd" clip-rule="evenodd" fill="#5C7BF6" d="M210.272,171.701c-11.021-10.237-21.521-20.997-31.938-31.839
		c11.086,0.006,22.172,0.011,33.257,0.017c1.322,1.55,0.931,3.434,0.941,5.206c0.042,7.402,0.104,14.806-0.048,22.206
		C212.45,168.921,213.604,171.559,210.272,171.701z"/>
	<path fill-rule="evenodd" clip-rule="evenodd" fill="#FE3069" d="M101.918,229.494c40.215,0,80.432-0.002,120.648,0.007
		c1.99,0,3.981,0.103,5.972,0.157c0.536,0.706,1.14,1.545-0.328,1.726c-1.471,0.182-2.977,0.1-4.468,0.1
		c-40.608,0.003-81.217,0.001-121.826,0C101.917,230.821,101.917,230.157,101.918,229.494z"/>
	<path fill-rule="evenodd" clip-rule="evenodd" fill="#5473F5" d="M171.652,209.529c-10.773-9.548-20.41-20.254-30.769-30.225
		c-7.142-6.875-13.68-14.368-21.291-20.762c0.372-0.369,0.744-0.737,1.115-1.106c17.55,17.126,34.98,34.374,51.952,52.078
		C172.328,209.821,171.993,209.84,171.652,209.529z"/>
	<path fill-rule="evenodd" clip-rule="evenodd" fill="#4869F3" d="M171.652,209.529c0.336-0.005,0.671-0.01,1.007-0.015
		c0.908,0.605,2.12,1.011,1.638,2.522c-8.615-0.897-17.25-0.308-25.872-0.38c-13.616-0.113-27.235-0.006-40.852-0.058
		c-1.922-0.007-4.027,0.591-5.679-1.042c21.002-0.011,42.003-0.01,63.005-0.047C167.181,210.506,169.559,210.935,171.652,209.529z"
		/>
	<path fill-rule="evenodd" clip-rule="evenodd" fill="#B7C6FE" d="M213.54,139.837c-0.054,10.198-0.059,20.397-0.277,30.592
		c-0.014,0.649,1.966,4.099-1.817,2.493c1.285-6.881,0.274-13.83,0.613-20.738c0.202-4.105-0.501-8.239,0.397-12.32
		C212.817,139.854,213.179,139.846,213.54,139.837z"/>
	<path fill-rule="evenodd" clip-rule="evenodd" fill="#4667F4" d="M212.456,139.863c-0.002,9.297,0.031,18.594-0.037,27.891
		c-0.013,1.745,0.63,3.692-0.973,5.168c-0.391-0.407-0.782-0.813-1.173-1.22c1.591-1.798,1.263-4.009,1.271-6.125
		c0.035-8.566,0.035-17.132,0.047-25.698C211.878,139.813,212.167,139.808,212.456,139.863z"/>
	<path fill-rule="evenodd" clip-rule="evenodd" fill="#BFCDED" d="M288.4,361.314c-4.668-0.051-9.335-0.101-14.002-0.15
		c-1.178-1.412-0.944-3.119-0.945-4.753c-0.019-26.307-0.019-52.615,0-78.923c0.001-1.473-0.196-2.994,0.629-4.357
		c1.642-1.586,3.731-1.192,5.681-1.194c38.395-0.031,76.791-0.031,115.187-0.002c2.117,0.001,4.384-0.393,6.094,1.438
		c0.005,5.018,0.01,10.034,0.015,15.052c-1.848,1.997-4.299,1.426-6.554,1.432c-17.725,0.046-35.449,0.012-53.174,0.037
		c-2.473,0.004-4.982-0.219-7.322,0.737c-0.27,0.237-0.56,0.494-0.772,0.785c-0.141,0.521-0.112,1.027,0.154,1.527
		c1.525,1.304,3.008,2.624,4.374,4.066c13.195,13.935,27.744,26.484,41.156,40.196c1.932,1.975,4.391,3.767,3.28,7.161
		c-4.046,4.598-8.949,7.981-14.6,10.309c-3.155-0.103-5.017-2.318-7.008-4.308c-19.878-19.854-39.736-39.728-59.619-59.576
		c-1.757-1.754-3.351-3.72-5.683-4.79c-2.984-0.941-5.965-1.604-8.939,0.006c-3.202,3.114-3.224,4.702-0.081,8.699
		c5.303,7.661,12.474,13.619,18.821,20.298c12.774,13.441,26.162,26.298,39.197,39.495c1.745,1.767,4.502,3.264,3.251,6.603
		c-6.778,0.15-13.56,0.207-20.331,0.513c-1.834,0.083-2.94-1.48-4.638-1.405c-1.876-0.119-3.617-0.714-4.955-2.015
		c-7.942-7.717-15.809-15.513-23.471-23.511c-0.801-0.835-1.063-2.059-1.917-2.853c-0.354-0.31-0.752-0.561-1.258-0.516
		c-0.273,0.25-0.494,0.489-0.648,0.831c-0.9,7.742-0.182,15.464-0.411,23.168C289.848,357.429,290.199,359.641,288.4,361.314z"/>
	<path fill-rule="evenodd" clip-rule="evenodd" fill="#37417E" d="M382.2,344.367c-6.688-7.689-13.829-14.886-21.601-21.525
		c-5.643-4.822-10.718-10.326-15.892-15.676c-4.462-4.613-9.503-8.675-13.347-13.882c-0.972-2.003,0.29-2.728,1.883-3.149
		c1.457-0.387,2.972-0.246,4.462-0.247c18.922-0.011,37.845-0.024,56.767,0.017c2.266,0.006,4.715-0.516,6.573,1.457
		c1.439,17.817-2.309,34.134-13.952,48.162C385.622,341.297,384.231,343.155,382.2,344.367z"/>
	<path fill-rule="evenodd" clip-rule="evenodd" fill="#CB2451" d="M297.292,283.636c16.802,17.015,33.596,34.039,50.408,51.043
		c6.61,6.686,13.265,13.328,19.899,19.994c-6.088,4.01-12.985,5.497-20.06,6.43c-14.664-15.031-29.321-30.069-43.995-45.09
		c-6.416-6.568-12.867-13.102-19.302-19.65c-1.291-4.347-1.313-8.693,0.004-13.04C288.611,282.769,292.974,282.293,297.292,283.636z
		"/>
	<path fill-rule="evenodd" clip-rule="evenodd" fill="#37417D" d="M293.119,330.291c9.817,9.973,19.634,19.944,29.452,29.918
		c-1.043,1.396-2.593,1.268-4.047,1.264c-9.034-0.023-18.066-0.086-27.1-0.135c-0.792-0.887-1.376-1.872-1.405-3.099
		c-0.199-8.279-0.191-16.561,0.011-24.839C290.071,331.674,290.198,329.437,293.119,330.291z"/>
	<path fill-rule="evenodd" clip-rule="evenodd" fill="#C64E8B" d="M272.538,272.479c-0.012-0.341-0.023-0.68-0.033-1.02
		c0.001,0-0.078,0.02-0.078,0.02c1.179-0.903,2.556-0.545,3.849-0.546c40.295-0.019,80.59-0.019,120.887-0.003
		c1.303,0.001,2.663-0.29,3.892,0.447c0,0.346,0,0.69,0.001,1.037c-1.717,0.937-3.579,0.47-5.366,0.473
		c-40.445,0.067-80.889-0.051-121.332,0.078C273.693,273.018,273.087,272.855,272.538,272.479z"/>
	<path fill-rule="evenodd" clip-rule="evenodd" fill="#CD243F" d="M401.054,271.377c-42.875,0.034-85.75,0.068-128.626,0.102
		c2.073-1.476,4.462-1.047,6.75-1.048c40.621-0.017,81.243-0.008,121.865-0.004C401.163,270.742,401.167,271.059,401.054,271.377z"
		/>
	<path fill-rule="evenodd" clip-rule="evenodd" fill="#BCF8FE" d="M273.517,272.484c42.513-0.023,85.025-0.047,127.538-0.07
		c0.076,0.32,0.072,0.641-0.012,0.959c-42.187,0.022-84.373,0.046-126.561,0.069c-0.381,0.338-0.793,0.38-1.234,0.125
		C272.947,273.108,273.057,272.753,273.517,272.484z"/>
	<path fill-rule="evenodd" clip-rule="evenodd" fill="#C28EBF" d="M273.517,272.484c-0.089,0.308-0.081,0.612,0.022,0.915
		c0.581,1.085,0.393,2.266,0.393,3.412c0.01,26.989,0.01,53.979,0,80.97c-0.001,1.146,0.201,2.329-0.415,3.404l-0.47,0.054
		c0,0-0.473-0.024-0.473-0.025c-0.012-29.579-0.024-59.157-0.036-88.735C272.864,272.433,273.191,272.435,273.517,272.484z"/>
	<path fill-rule="evenodd" clip-rule="evenodd" fill="#BDEBFE" d="M273.517,361.186c0.007-29.262,0.015-58.523,0.022-87.786
		c0.314,0.012,0.629,0.025,0.943,0.042c-0.028,29.242-0.056,58.481-0.084,87.723l-0.44,0.076L273.517,361.186z"/>
	<path fill-rule="evenodd" clip-rule="evenodd" fill="#303975" d="M401.046,291.361c-21.162,0.006-42.326-0.01-63.489,0.052
		c-2.182,0.006-4.768-0.835-6.195,1.871c-1.077-0.215-1.71-0.895-2.01-1.922c0.156-2.277,1.956-1.93,3.333-1.934
		c21.714-0.068,43.428-0.067,65.142-0.02c1.178,0.003,2.324,0.128,3.228,1.014C401.128,290.736,401.126,291.049,401.046,291.361z"/>
	<path fill-rule="evenodd" clip-rule="evenodd" fill="#404B87" d="M401.054,290.423c-22.147-0.015-44.293-0.031-66.439-0.038
		c-1.81-0.001-3.661-0.165-5.263,0.978c-1.061-0.218-0.918-1.08-0.984-1.831c0.953-0.964,2.176-0.634,3.298-0.635
		c22.202-0.019,44.405-0.016,66.606-0.008c0.983,0,2.001-0.143,2.888,0.473C401.124,289.716,401.089,290.069,401.054,290.423z"/>
	<path fill-rule="evenodd" clip-rule="evenodd" fill="#D3E2FD" d="M401.159,289.361c-24.264,0.057-48.528,0.113-72.792,0.17
		c1.537-1.279,3.386-1.153,5.203-1.152c22.496,0.014,44.992,0.03,67.487,0.046C401.146,288.73,401.179,289.044,401.159,289.361z"/>
	<path fill-rule="evenodd" clip-rule="evenodd" fill="#2F3774" d="M293.119,330.291c-2.136,1.276-1.679,3.411-1.687,5.33
		c-0.036,8.571-0.011,17.144-0.008,25.717c-0.34-0.023-0.682-0.048-1.022-0.071c-1.058-1.249-0.977-2.766-0.979-4.254
		c-0.019-8.447-0.022-16.895,0.003-25.342c0.005-1.478-0.143-3.015,1.042-4.211C291.684,328.093,292.63,328.979,293.119,330.291z"/>
	<path fill-rule="evenodd" clip-rule="evenodd" fill="#B5C3E5" d="M290.468,327.46c-0.021,11.27-0.043,22.538-0.065,33.807
		l-0.479,0.067l-0.484-0.021c-0.926-11.297-0.758-22.596-0.081-33.896C289.729,327.433,290.098,327.447,290.468,327.46z"/>
	<path fill-rule="evenodd" clip-rule="evenodd" fill="#CBD9F5" d="M289.358,327.418c0.027,11.298,0.054,22.597,0.081,33.895
		c-0.347,0.001-0.693,0.001-1.039,0.001c0.005-9.383-0.002-18.767,0.024-28.149C288.431,331.209,288.146,329.186,289.358,327.418z"
		/>
	<path fill-rule="evenodd" clip-rule="evenodd" fill="#FE275D" d="M230.373,229.45c0.029-27.598,0.055-55.196,0.094-82.794
		c0.003-1.992,0.107-3.983,0.164-5.975c1.036,1.652,0.881,3.506,0.881,5.325c0.006,25.905,0.007,51.811-0.002,77.715
		C231.51,225.698,231.759,227.741,230.373,229.45z"/>
	<path fill-rule="evenodd" clip-rule="evenodd" fill="#CC243E" d="M272.266,140.706c0.058,26.267,0.115,52.535,0.18,78.802
		c0.009,3.324,0.06,6.648,0.09,9.972c-1.332-1.732-1.082-3.773-1.083-5.748c-0.011-25.894-0.009-51.788-0.003-77.682
		C271.449,144.231,271.3,142.381,272.266,140.706z"/>
	<path fill-rule="evenodd" clip-rule="evenodd" fill="#FE2A60" d="M217.929,296.555c-0.076-0.145-0.203-0.283-0.221-0.434
		c-1.281-10.651-1.28-10.652-12.824-10.761c3.837-3.657,8.482-1.125,12.733-1.582c0.831-0.089,1.021,1.173,0.949,2.018
		C218.259,289.376,219.307,293.038,217.929,296.555z"/>
	<path fill-rule="evenodd" clip-rule="evenodd" fill="#FE346E" d="M230.474,289.811c-0.32,8.83,0.996,17.709-0.794,26.495
		C229.678,307.467,229.255,298.613,230.474,289.811z"/>
	<path fill-rule="evenodd" clip-rule="evenodd" fill="#5171F5" d="M211.388,342.244c-2.166-3.345,0.932-7.903-2.527-10.95
		c0.35-0.983,1.024-1.911,2.027-1.809c0.94,0.096,0.815,1.238,0.798,2.021C211.604,335.086,211.491,338.665,211.388,342.244z"/>
	<path fill-rule="evenodd" clip-rule="evenodd" fill="#313975" d="M290.744,174.369c-0.686-11.224-0.333-22.452-0.183-33.68
		c1.892,8.047,0.352,16.214,0.857,24.309c0.13,2.086-0.515,4.466,2.091,5.635C293.127,172.276,291.773,173.203,290.744,174.369z"/>
	<path fill-rule="evenodd" clip-rule="evenodd" fill="#CBD9F5" d="M289.39,140.698c-0.016,11.285-0.031,22.569-0.047,33.853
		c-2.009-7.644-0.589-15.425-0.85-23.136C288.374,147.858,287.577,144.136,289.39,140.698z"/>
	<path fill-rule="evenodd" clip-rule="evenodd" fill="#BFD6F2" d="M285.679,203.638c-2.59,4.04-0.61,8.572-1.383,12.808
		c0.213,0.33,0.453,0.637,0.724,0.922c0.14,0.373,0.182,0.755,0.125,1.149c-0.16,0.361-0.387,0.676-0.669,0.952
		C280.962,214.792,281.596,206.448,285.679,203.638z"/>
	<path fill-rule="evenodd" clip-rule="evenodd" fill="#CD243D" d="M284.334,217.675c-0.802-0.385-1.107-0.785-0.038-1.229
		c4.752,0.035,9.505,0.069,14.257,0.104c-0.371,0.356-0.742,0.712-1.113,1.068C293.077,219.06,288.708,218.966,284.334,217.675z"/>
	<path fill-rule="evenodd" clip-rule="evenodd" fill="#BDEEFE" d="M284.476,219.468c-0.019-0.325-0.035-0.651-0.051-0.976
		c4.299-0.867,8.614-0.578,12.931-0.187C293.236,220.621,288.768,219.062,284.476,219.468z"/>
	<path fill-rule="evenodd" clip-rule="evenodd" fill="#C47EB3" d="M297.355,218.306c-4.311,0.062-8.62,0.124-12.931,0.187
		c-0.023-0.273-0.054-0.545-0.091-0.817c4.369-0.019,8.737-0.038,13.105-0.057C297.387,217.845,297.359,218.074,297.355,218.306z"/>
	<path fill-rule="evenodd" clip-rule="evenodd" fill="#FE2A61" d="M135.805,146.78c1.618,0.134,2.695,1.176,3.759,2.241
		c21.827,21.836,43.655,43.669,65.471,65.515c0.581,0.582,1.025,1.3,1.533,1.954c0.68,0.327,0.679,0.651-0.002,0.975
		c-1.311-0.14-1.897-1.266-2.688-2.058c-22.224-22.216-44.431-44.449-66.626-66.694C136.688,148.149,136.283,147.428,135.805,146.78
		z"/>
	<path fill-rule="evenodd" clip-rule="evenodd" fill="#FE285B" d="M206.565,217.465c-0.001-0.325-0.001-0.65,0.002-0.975
		c12.973,0.013,10.701,1.01,11.006-11.691c2.067,3.676,0.656,7.644,0.915,11.469c0.119,1.764-1.446,1.483-2.53,1.468
		C212.827,217.691,209.696,217.561,206.565,217.465z"/>
	<path fill-rule="evenodd" clip-rule="evenodd" fill="#BFD5F2" d="M284.488,283.506c-0.082,4.285-0.163,8.571-0.245,12.856
		c-2.702-3.771-2.591-10.149,0.242-13.931C285.133,282.788,285.134,283.146,284.488,283.506z"/>
	<path fill-rule="evenodd" clip-rule="evenodd" fill="#BDF7FE" d="M284.488,283.506c-0.002-0.358-0.003-0.717-0.004-1.074
		c4.268,0.432,8.729-1.199,12.81,1.205C293.024,283.592,288.756,283.549,284.488,283.506z"/>
</g>
</svg>
