<?xml version="1.0" encoding="utf-8"?>
<!-- Generator: Adobe Illustrator 16.0.0, SVG Export Plug-In . SVG Version: 6.00 Build 0)  -->
<!DOCTYPE svg PUBLIC "-//W3C//DTD SVG 1.1//EN" "http://www.w3.org/Graphics/SVG/1.1/DTD/svg11.dtd">
<svg version="1.1" id="Слой_15" xmlns="http://www.w3.org/2000/svg" xmlns:xlink="http://www.w3.org/1999/xlink" x="0px"
	 y="0px" width="500px" height="500px" viewBox="0 0 500 500" enable-background="new 0 0 500 500" xml:space="preserve">
<g>
	<path fill-rule="evenodd" clip-rule="evenodd" fill="#FCF9EF" d="M453.831,311.079c0.066,12.271,1.378,24.653-1.01,36.761
		c-2.992,15.169-11.938,26.729-24.819,34.893c-10.374,6.574-21.31,12.266-31.996,18.349c-0.699-1.425,0.143-2.592,0.737-3.721
		c5.868-11.136,1.671-22.186-9.426-25.813c-0.608-0.199-1.103-0.726-1.712-0.98c-0.958-0.292-1.889-0.681-2.805-0.962
		c-0.236-0.224-0.423-0.212-0.513,0.054c0.269-0.074,0.529-0.044,0.811,0.097c0.849,0.281,1.644,0.625,2.478,0.897
		c3.238,2.309,2.057,4.072-1.004,4.485c-7.833,1.056-14.933-1.198-20.818-6.409c-3.274-2.898-1.768-10.32,2.378-13.202
		c4.035-2.806,8.514-3.643,13.318-2.524c0.451,0.097,0.895,0.253,1.341,0.405c0.189,0.063,0.324,0.396,0.595,0.163
		c-0.285-0.134-0.572-0.263-0.889-0.396c-3.673-1.152-6.889-3.393-10.743-4.039c-10.807-1.811-18.979,1.578-18.397,13.567
		c0.064,1.329-0.032,2.706-0.602,3.926c-1.377,2.95-2.972,3.603-4.749,0.264c-0.685-2.571-0.371-5.107,0.273-7.62
		c0.198-0.891,0.658-1.662,1.206-2.371c-0.003,0.019-0.349-0.049-0.369-0.015c0.116,0.379,0.021,0.638-0.326,0.834
		c-0.674,1.177-0.729,2.499-1.069,3.749c-2.632,11.707,9.035,21.046,21.679,21.993c4.812,0.361,9.674-0.237,14.476,0.244
		c4.402,0.441,8.781,1.614,10.44,6.382c1.758,5.049,1.083,9.827-3.093,13.678c-1.34,0.504-2.648,0.465-3.91-0.24
		c-0.903-0.704-0.807-1.729-0.863-2.714c-0.347-5.979-3.177-8.934-9.205-9.342c-4.755-0.321-9.55,0.261-15.348-0.95
		c4.173,2.808,8.173,2.534,11.626,3.906c5.346,2.125,5.969,5.714,1.681,9.58c-4.264,1.034-8.599,0.595-12.893,0.544
		c-8.477-0.1-16.914,0.095-25.24,1.822c-1.662,0.06-2.721,0.894-3.149,2.517c-0.298,4.428-2.557,6.83-7.089,6.877
		c-3.248,0.587-5.993,2.099-8.246,4.517c-0.387,0.278-0.802,0.502-1.24,0.688c-0.896,0.353-1.809,0.648-2.756,0.833
		c-0.484,0.067-0.967,0.048-1.448-0.03c-3.131-5.983-8.226-4.42-13.165-3.404c-6.839,1.406-13.315,3.817-19.464,7.12
		c-0.432,0.232-0.884,0.414-1.349,0.567c-3.108,0.644-6.059,1.797-9.044,2.838c-1.439,0.417-2.857,0.902-4.288,1.352
		c-4.034,1.32-8.094,2.552-12.147,3.803c-1.85,0.57-3.712,1.419-5.664,0.3c-1.496-1.93-0.393-3.849,0.136-5.697
		c6.272-21.923,12.678-43.812,19.406-65.594c3.449-11.165,10.521-20.742,16.128-30.938c13.633-24.788,27.472-49.463,40.928-74.346
		c3.896-6.959,7.718-13.974,13.429-19.701c4.14-4.292,5.745-4.756,10.848-2.483c7.813,3.481,14.249,8.828,19.877,15.201
		c0.73,2.594-0.531,4.887-1.153,7.265c-2.695,10.292-5.744,20.377-11.364,29.636c-5.247,8.646-9.561,17.853-14.719,26.826
		c8.673-10.26,15.202-21.736,22.17-32.882c3.339-5.342,4.263-11.846,6.459-17.76c0.86-2.314,1.359-4.847,3.678-6.32
		c2.145-0.76,3.87,0.424,5.638,1.273c4.037,1.938,7.978,4.087,12.048,5.947c4.202,1.922,7.663,4.561,9.996,8.61
		c1.627,2.823,3.821,4.243,7.376,3.729c4.174-0.604,7.752,1.525,11.1,3.7c11.985,7.784,23.077,16.713,33.49,26.494
		C452.625,308.378,453.22,309.719,453.831,311.079z"/>
	<path fill-rule="evenodd" clip-rule="evenodd" fill="#68A3AE" d="M48.18,217.958c-0.05-19.986-0.92-40.014,0.102-59.945
		c0.871-16.975,10.523-30.087,24.66-38.758c21.665-13.288,44.036-25.424,66.107-38.049c7.317,2.924,13.99,6.879,19.742,12.329
		c0.321,1.102,0.296,2.207,0.079,3.321c-0.861,7.5-0.436,15.007-0.229,22.515c0.715,25.978-1.358,51.913-1.133,77.89
		c0.061,6.947-0.981,13.932-0.812,20.934c0.176,7.277,0.864,8.078,8.066,8.091c26.813,0.051,53.625,0.006,80.437,0.036
		c2.81,0.003,5.683-0.339,8.354,0.952c3.724,4.71,1.476,9.688,0.652,14.601c-4.076,5.827-9.879,9.602-15.824,13.209
		c-4.182,1.286-8.215,2.959-12.175,4.814c-20.209,7.925-38.986,18.604-57.439,29.899c-1.13,0.692-2.146,1.604-3.581,1.607
		c-14.979-8.981-29.749-18.309-44.612-27.482c-21.958-13.553-43.813-27.274-65.867-40.672
		C52.295,221.785,49.756,220.46,48.18,217.958z"/>
	<path fill-rule="evenodd" clip-rule="evenodd" fill="#CAD5C6" d="M157.893,96.019c-0.009-1.007-0.019-2.014-0.028-3.02
		c-2.396-7.424-2.55-14.843,0.041-22.257c1.002-1.835,0.704-3.855,0.785-5.809c0.272-6.545,2.123-8.458,8.497-8.865
		c5.911-0.378,11.875,0.066,17.735-1.116c6.36-2.518,13.176-1.985,19.726-2.282c16.274-0.737,32.533-1.849,48.819-2.377
		c14.289-0.463,28.549-1.597,42.827-2.344c3.393-0.178,6.607-0.134,9.799,0.971c7.256-0.395,14.509-0.928,21.77-1.112
		c2.741-0.069,5.642-0.301,8.244,1.11c1.632,1.951,1.601,4.317,1.604,6.648c0.031,25.479,0.828,50.989-0.207,76.427
		c-1.173,28.809-0.259,57.595-0.788,86.384c-0.055,2.96,0.451,6.035-1.343,8.742c-1.78,1.544-3.979,1.524-6.13,1.563
		c-22.397,0.403-44.784,1.579-67.195,1.025c-2.789-0.069-5.704,0.368-8.087-1.69c-28.825,0.013-57.651,0.027-86.477,0.037
		c-1.833,0-3.666-0.009-5.498-0.05c-5.854-0.131-7.038-1.21-6.944-7.073c0.29-18.141,0.38-36.293,1.136-54.416
		c0.659-15.81,0.853-31.612,0.879-47.425c0.996-5.877,0.182-11.802,0.464-17.698C157.606,99.6,157.169,97.768,157.893,96.019z"/>
	<path fill-rule="evenodd" clip-rule="evenodd" fill="#4B8691" d="M48.18,217.958c12.173,7.402,24.38,14.75,36.513,22.217
		c24.726,15.217,49.42,30.485,74.098,45.781c2.224,1.378,4.79,2.404,6.171,4.881c-0.116,1.93-1.671,2.779-2.932,3.807
		c-1.993,1.623-3.362,3.665-4.293,6.021c-0.855,2.166-1.493,4.486-2.833,6.367c-9.899,13.894-15.956,29.813-23.818,44.778
		c-3.035,5.777-5.235,11.864-7.479,17.93c-3.879,10.484-10.575,19.152-17.23,27.88c-0.831,1.09-1.862,1.89-3.238,2.173
		c-11.708-7.111-24.473-12.542-35.278-21.045c-12.307-9.685-19.656-22.525-19.768-38.417c-0.275-39.128-0.092-78.259-0.083-117.388
		C48.011,221.28,48.121,219.619,48.18,217.958z"/>
	<path fill-rule="evenodd" clip-rule="evenodd" fill="#FCF9EF" d="M103.139,399.792c10.839-12.822,17.453-27.846,24.469-42.984
		c6.845-14.77,11.982-30.636,22.269-43.775c2.313-2.955,3.911-6.567,5.364-10.073c2.09-5.041,4.869-9.371,9.721-12.122
		c19.424-12.387,39.254-23.995,61.038-31.861c0.833,1.771-0.113,3.277-0.901,4.666c-3.485,6.143-5.685,12.66-5.823,19.063
		c3.907-7.414,7.096-16.069,12.951-23.272c1.692-2.082,3.438-4.013,5.769-5.364c4.998-3.647,9.996-7.296,14.993-10.944
		c2.852,4.18,1.227,8.825,1.401,13.284c-0.062,0.592-0.193,1.172-0.364,1.739c-4.159,11.608-7.488,23.376-8.88,35.729
		c-1.38,12.243-4.896,24.118-7.488,36.151c-6.42,29.797-10.034,60.032-14.137,90.192c-0.94,6.914-1.559,13.867-2.608,20.771
		c-0.714,1.491-1.942,2.02-3.524,1.879c-3.332-1.905-6.792-3.386-10.724-3.563c-3.463-0.156-5.691-2.649-7.958-4.772
		c-3.912-3.665-8.152-5.039-13.185-2.736c-10.83,4.956-20.809,1.589-30.577-3.192c-2.381-1.166-4.831-2.213-7.147-3.517
		c-11.11-5.172-21.23-12.112-31.978-17.934C111.523,404.828,107.362,402.254,103.139,399.792z"/>
	<path fill-rule="evenodd" clip-rule="evenodd" fill="#7BADB6" d="M414.011,110.976c6.707,3.853,13.685,7.244,19.751,12.166
		c13.311,10.8,20.129,24.802,20.178,41.848c0.105,37.322-0.058,74.644-0.11,111.966c-2.264,0.781-3.793-0.764-5.413-1.809
		c-23.993-15.483-48.31-30.45-72.59-45.476c-2.902-1.796-6.322-3.139-7.787-6.684c-0.297-1.033-0.382-2.085-0.34-3.156
		c0.076-1.148,0.322-2.239,1.025-3.187c0.827-0.891,1.861-1.444,2.984-1.859c10.658-2.69,21.41-4.989,32.072-7.661
		c6.624-1.659,7.67-2.805,7.566-9.657c-0.394-26.148,1.742-52.259,1.092-78.41C412.371,116.31,411.779,113.332,414.011,110.976z"/>
	<path fill-rule="evenodd" clip-rule="evenodd" fill="#515243" d="M414.011,110.976c-0.066,12.131-0.078,24.263-0.21,36.394
		c-0.189,17.438-0.512,34.874-0.676,52.312c-0.046,4.87-1.959,7.519-7.006,8.565c-11.674,2.42-23.123,5.868-34.895,7.885
		c-0.695,0.405-1.72,0.165-2.146,1.097c-0.083,0.887-0.166,1.774-0.249,2.662c-3.08-1.239-2.591-4.03-2.36-6.321
		c1.65-16.426,0.871-32.894,0.718-49.329c-0.276-29.586,1.755-59.133,1.138-88.717c-0.048-2.288-0.218-4.714,1.687-6.548
		c12.47,5.008,24.889,10.146,37.434,14.957c4.654,1.785,6.985,4.36,6.642,9.603C413.707,99.325,414.007,105.16,414.011,110.976z"/>
	<path fill-rule="evenodd" clip-rule="evenodd" fill="#606151" d="M370.012,68.975c-0.005,5.829,0.111,11.661-0.033,17.486
		c-0.988,39.758-1.104,79.523-0.981,119.291c0.015,4.714-2.475,9.399-0.166,14.139c0.017,0.987,0.034,1.975,0.051,2.962
		c-0.723,2.736-2.831,3.389-5.288,3.525c-5.699-0.101-11.626,0.915-16.513-3.303c-0.79-1.746-0.569-3.6-0.569-5.418
		c-0.001-28.949-0.779-57.925,0.275-86.839c0.893-24.445,0.239-48.863,0.72-73.288c0.039-1.979-0.224-4.046,1.493-5.58
		c5.592,1.484,11.198,2.914,16.77,4.474c2.996,0.839,4.043,3.212,4.159,6.083C370.016,64.661,369.988,66.819,370.012,68.975z"/>
	<path fill-rule="evenodd" clip-rule="evenodd" fill="#68A3AE" d="M364.137,225.05c2.085,0.355,3.301-1.17,4.746-2.196
		c5.742,5.63,13.054,8.932,19.721,13.172c21.1,13.418,42.304,26.673,63.471,39.985c0.562,0.353,1.169,0.631,1.755,0.944
		c0,11.375,0.001,22.749,0.002,34.124c-11.034-10.046-22.326-19.772-34.761-28.085c-4.441-2.97-8.846-5.974-14.669-4.179
		c-1.355,0.418-2.78,0.098-3.45-1.282c-4.8-9.891-14.903-12.551-23.473-17.293c-1.737-0.961-3.568-1.751-5.356-2.619
		c-3.665-0.702-4.269-4.237-6.124-6.614c-6.091-4.685-11.236-10.547-18.417-13.894c-4.268-1.989-7.738-2.255-10.791,1.744
		c-4.229-3.68-2.438-7.861-1.004-12.014c5.303-2.735,11.006-0.996,16.514-1.401C356.229,225.153,360.214,226.011,364.137,225.05z"/>
	<path fill-rule="evenodd" clip-rule="evenodd" fill="#AE1947" d="M355.008,460.992c-7.965-3.938-13.741-10.112-18.107-17.727
		c-1.172-1.299-2.68-2.351-3.113-4.198c-1.807-5.303-3.728-10.573-4.789-16.105c-0.148-0.528-0.232-1.062-0.284-1.606
		c-0.12-1.979-0.271-3.965,1.17-5.616c2.296-1.079,4.181,0.246,6.107,1.11c9.984,4.481,20.421,6.879,31.381,6.622
		c10.419-0.244,20.766,1.612,31.27,0.24c7.775-1.016,15.415-2.087,22.721-5.011c1.496-0.599,2.994-1.592,4.694-0.52
		c-1.922,19.713-10.406,35.108-28.898,43.918c-2.099,2.441-4.97,3.097-7.973,3.634c-9.695,1.735-19.212,0.535-28.684-1.562
		C358.356,463.697,356.396,462.817,355.008,460.992z"/>
	<path fill-rule="evenodd" clip-rule="evenodd" fill="#CAD5C6" d="M217.048,442.066c1.068-0.104,2.221,0.025,2.926-1.069
		c1.365-1.42,3.344-1.328,4.995-2.048c5.229-1.654,10.509-3.135,15.795-4.589c1.724-0.474,3.468-1.327,5.313-0.376
		c5.98-1.652,11.96-3.305,17.94-4.956c1.552,0.428,2.705-0.553,3.976-1.12c2.833-1.563,5.761-2.821,9.072-2.863
		c0.288,0.276,0.39,0.608,0.31,0.999c-0.202,0.53-0.532,0.977-0.908,1.392c-0.232,0.279-0.489,0.538-0.747,0.792
		c-0.12,0.131-0.251,0.255-0.37,0.387c-0.222,0.274-0.452,0.545-0.663,0.828c-0.079,0.16-0.174,0.31-0.251,0.469
		c-0.189,0.519-0.313,1.05-0.408,1.594c-0.082,0.591-0.211,1.166-0.366,1.739c-0.135,0.62-0.271,1.235-0.337,1.869
		c-0.111,1.396-0.018,2.783,0.03,4.182c0.034,0.527,0.043,1.044,0.046,1.575c0.02,0.567,0.019,1.121,0.016,1.686
		c-1.117,7.752-0.71,15.548-0.821,23.326c-0.031,2.148,0.052,4.346-1.462,6.151c-3.407,2.622-7.598,3.42-11.57,3.751
		c-12.706,1.063-25.25,0.498-36.321-7.097c-2.001-1.373-4.594-1.704-6.258-3.638c-0.784-6.709-0.707-13.481-1.517-20.191
		C215.324,443.679,215.739,442.553,217.048,442.066z"/>
	<path fill-rule="evenodd" clip-rule="evenodd" fill="#7BADB6" d="M306.093,48.919c-20.682,1.288-41.365,2.461-62.075,3.307
		c-19.7,0.804-39.362,2.528-59.095,2.726c15.442-9.103,30.425-19.239,47.024-25.998c13.398-5.455,27.759-5.256,41.012,1.31
		C284.301,35.883,295.07,42.656,306.093,48.919z"/>
	<path fill-rule="evenodd" clip-rule="evenodd" fill="#606151" d="M364.137,225.05c-7.476,1.386-15.055,1.557-22.616,1.938
		c-1.821,0.092-3.643,0.172-5.464,0.258c-0.43,0.196-0.796,0.102-1.107-0.244c0.386-59.362,0.771-118.724,1.157-178.085
		c3.392,0.255,6.716,0.827,9.9,2.069c1.523,1.6,1.49,3.607,1.49,5.617c0.001,21.611,0.587,43.242-0.14,64.829
		c-1.084,32.231-0.683,64.456-0.817,96.685c-0.008,2.01-0.936,4.421,1.491,5.883c1.044-0.414,2.144-1.429,3.226-0.576
		C355.257,226.58,359.881,224.267,364.137,225.05z"/>
	<path fill-rule="evenodd" clip-rule="evenodd" fill="#BBCBB5" d="M385.026,369.951c16.23,2.506,20.033,18.84,10.979,31.129
		c-0.622,0.61-1.245,1.221-1.867,1.831c-0.815,2.553-2.503,4.142-5.153,4.675c-0.504-0.072-0.938-0.289-1.303-0.645
		c-0.794-1.72,0.197-2.837,1.32-3.909c1.783-2.109,2.235-4.807,2.769-7.32c1.186-5.587-3.296-10.354-9.9-10.664
		c-4.629-0.216-9.292,0.143-13.908-0.191c-9.09-0.659-16.919-3.594-21.914-12.089c-2.523-4.291-2.602-8.347-1.03-12.75
		c1.499-0.232,1.365,0.86,1.466,1.786c0.187,1.722-0.416,3.512,0.437,5.177c0.674,0.872,1.211,2.418,2.374,0.367
		c0.962-1.697,0.851-3.542,0.767-5.349c-0.606-12.979,8.146-15.659,18.712-14.563c4.882,0.506,9.105,2.905,13.101,5.657
		c0.333,0.911,0.106,1.314-0.909,1c-2.153-0.03-4.309-0.136-6.459-0.077c-6.797,0.187-11.044,4.417-11.319,11.037
		c-0.066,1.576,0.672,2.497,1.808,3.263c5.769,3.889,12.001,6.243,19.095,5.665c0.942-0.076,2.318,0.203,2.44-1.053
		c0.138-1.413-1.259-1.733-2.384-2.059C383.841,369.988,383.991,369.545,385.026,369.951z"/>
	<path fill-rule="evenodd" clip-rule="evenodd" fill="#F1F1AD" d="M426.057,418.182c-10.859,5.845-22.761,7.448-34.751,7.445
		c-11.937-0.003-23.918,0.156-35.834-1.466c-9.048-1.232-17.295-4.511-25.349-8.528c-2.157,0.757-4.28,1.265-6.036-0.847
		c4.79,0.167,6.179-3.171,7.152-6.938c1.702-0.983,3.17,0.033,4.742,0.49c10.375,3.018,20.821,5.455,31.767,5.233
		c8.753-0.178,17.502,0.419,26.277,0.029c9.719-0.431,19.154-1.663,27.91-6.195c1.204-0.623,2.372-1.233,3.77-0.674
		C427.107,410.509,427.47,414.318,426.057,418.182z"/>
	<path fill-rule="evenodd" clip-rule="evenodd" fill="#EFECE2" d="M217.048,442.066c-1.091,5.642,1.627,11.052,0.995,16.686
		c-0.239,2.128,0.126,4.334-1.06,6.298c-18.191-10.377-36.42-20.689-54.548-31.176c-4.921-2.847-10.365-4.854-14.637-8.786
		c4.648,0.656,8.974,2.583,13.055,4.551c8.024,3.87,15.872,4.172,23.935,0.896c5.191-2.108,9.839-2.45,13.894,2.268
		c3.505,4.077,8.269,5.781,13.463,5.965C214.723,438.858,215.901,440.248,217.048,442.066z"/>
	<path fill-rule="evenodd" clip-rule="evenodd" fill="#781A3F" d="M389.055,407.041c1.694-1.376,3.389-2.752,5.083-4.129
		c9.685,0.008,19.402-0.42,28.896,2.148c-0.491,3.372-3.594,3.606-5.858,4.646c-5.207,2.387-10.931,3.251-16.496,3.543
		c-20.217,1.063-40.497,1.976-60.338-3.47c-2.798-0.768-6.587-0.525-7.55-4.577c13.604-3.03,27.416-2.016,41.171-2.101
		c0.656,2.309-1.253,3.583-2.166,5.399c4.606,0.925,8.313-0.105,10.789-4.4c0.469-0.813,1.262-1.572,2.455-1.182
		c1.32,0.038,2.64,0.076,3.961,0.113c0.47,1.568-0.986,2.574-1.153,3.957c-0.053,0.375-0.197,0.711-0.419,0.992
		c0.016-0.013-0.156,0.447-0.156,0.447s0.337-0.357,0.349-0.371C388.058,407.64,388.568,407.357,389.055,407.041z"/>
	<path fill-rule="evenodd" clip-rule="evenodd" fill="#49443C" d="M348.031,224c-0.827,2.411-1.969,2.695-2.902,0.182
		c-0.438-1.177-0.14-2.636-0.139-3.967c0.005-21.147-0.598-42.316,0.164-63.436c1.271-35.268,0.552-70.53,0.853-105.793
		c1.096,0.018,2.2,0.006,2.993,0.964c-0.008,23.121,0.765,46.275-0.207,69.356C347.352,155.548,348.553,189.773,348.031,224z"/>
	<path fill-rule="evenodd" clip-rule="evenodd" fill="#C9D4C5" d="M308.017,451.006c-3.973,3.891-8.793,6.299-14.007,8.02
		c-3.304,1.26-6.64,2.383-10.237,2.354c-1.793,0.04-3.63-0.196-5.283,0.818c-0.532,0.193-1.064,0.207-1.608,0.055
		c-4.063-3.549-4.607-9.139-1.503-15.286c2.449-1.784,5.604-1.479,8.225-2.771c0.733-0.238,1.488-0.373,2.253-0.445
		c1.708-0.111,3.44-0.039,5.088-0.652c0.713-0.192,1.438-0.313,2.172-0.385c2.214,0.071,4.28-0.834,6.457-1.008
		c1.207-0.047,2.391-0.242,3.542-0.626c1.461-0.341,2.923-0.667,4.399-0.95c3.09-0.011,3.493,1.786,2.88,4.271
		C309.727,446.646,309.318,448.988,308.017,451.006z"/>
	<path fill-rule="evenodd" clip-rule="evenodd" fill="#E24670" d="M332.792,405.202c4.589,3.734,10.362,4.528,15.777,5.282
		c21.231,2.958,42.528,3.418,63.728-0.563c3.92-0.735,7.622-2.218,10.737-4.861c1.326-0.134,2.282,0.321,2.673,1.674
		c-10.009,6.396-21.234,8.162-32.794,8.424c-17.744,0.401-35.492,0.885-52.863-4.022c-3.063-0.864-5.812-2.367-8.811-3.287
		C330.988,406.515,331.117,405.404,332.792,405.202z"/>
	<path fill-rule="evenodd" clip-rule="evenodd" fill="#7AACB5" d="M157.906,70.742c-0.013,7.419-0.026,14.838-0.04,22.257
		c-6.485-3.591-12.95-7.215-18.816-11.793C145.367,77.775,151.14,73.364,157.906,70.742z"/>
	<path fill-rule="evenodd" clip-rule="evenodd" fill="#771A3E" d="M355.008,460.992c13.946,4.31,27.964,5.905,42.15,1.107
		c0.262,2.748-0.939,4.357-3.662,4.96c-11.986,2.65-23.844,2.652-35.532-1.542C355.798,464.74,354.762,463.306,355.008,460.992z"/>
	<path fill-rule="evenodd" clip-rule="evenodd" fill="#252725" d="M276.26,447.239c-1.312,5.023-3.02,10.081,1.277,14.613
		c0.924-0.516,1.8-0.618,2.558,0.291c-1.376,3.09-5.012,4.9-4.991,8.786c-1.323,0.368-2.647,0.735-3.971,1.104
		c-0.225-10.358-0.085-20.707,0.815-31.036c0.328-0.336,0.721-0.468,1.187-0.366c1.076,0.452,1.861,1.261,2.608,2.12
		c0.583,0.74,1.012,1.549,1.102,2.507C276.876,445.984,276.558,446.609,276.26,447.239z"/>
	<path fill-rule="evenodd" clip-rule="evenodd" fill="#921B3F" d="M334.801,438.589c0.7,1.559,1.399,3.117,2.1,4.677
		c-4.627-0.115-9.254-0.23-13.881-0.346c-1.304-0.394-2.738-0.431-3.843-1.394c-1.155-0.911-2.686-1.564-2.423-3.471
		c0.329-0.457,0.75-0.786,1.268-1.004C323.737,436.249,329.301,437.072,334.801,438.589z"/>
	<path fill-rule="evenodd" clip-rule="evenodd" fill="#C4CEC0" d="M320.103,441.099c0.972,0.607,1.944,1.214,2.917,1.821
		c-3.999,2.353-7.998,4.706-11.997,7.06c-2.297-2.783-0.872-5.548,0.038-8.314c0.268-0.759,0.741-1.361,1.391-1.827
		c0.443-0.257,0.926-0.39,1.438-0.41c1.236,0.015,2.387,0.475,3.577,0.736C318.315,440.555,319.383,440.337,320.103,441.099z"/>
	<path fill-rule="evenodd" clip-rule="evenodd" fill="#B7C1B4" d="M275.104,470.93c-1.664-4.673,0.375-7.091,4.878-8.008
		c1.614-1.545,3.707-1.634,5.746-1.889c1.035,0.018,2.093-0.099,3.031,0.501c0.485,0.387,0.543,0.829,0.175,1.328
		C284.324,465.552,279.714,468.241,275.104,470.93z"/>
	<path fill-rule="evenodd" clip-rule="evenodd" fill="#4F534F" d="M312.155,441.184c-1.1,2.839-1.66,5.747-1.133,8.796
		c-0.353,0.044-0.705,0.089-1.058,0.133c-1.925-1.799,0.025-4.098-0.781-6.041c0.945-2.088,0.768-3.385-2.009-2.849
		c-0.969,0.33-1.326-0.181-1.432-1.039c1.161-1.945,2.981-2.27,5.021-2.05c0.425,0.116,0.814,0.32,1.156,0.59
		c0.111,0.166,0.23,0.343,0.346,0.508c0.29,0.522-0.663,0.862-0.228,1.42C312.078,440.829,312.117,441.007,312.155,441.184z"/>
	<path fill-rule="evenodd" clip-rule="evenodd" fill="#404440" d="M289.008,461.943c-1.016-0.006-2.032-0.012-3.048-0.018
		c-0.891-0.889-2.295,0.133-3.162-0.851c-0.203-0.505-0.038-0.814,0.493-0.929c3.616,0.042,7.048-1.684,10.719-1.121
		c-0.612,1.366-1.736,1.914-3.162,1.98C290.313,461.475,289.695,461.777,289.008,461.943z"/>
	<path fill-rule="evenodd" clip-rule="evenodd" fill="#3F433F" d="M309.184,444.071c1.539,1.849,0.519,4.027,0.781,6.041
		c-0.649,0.298-1.299,0.596-1.948,0.894C307.621,448.563,308.271,446.295,309.184,444.071z"/>
	<path fill-rule="evenodd" clip-rule="evenodd" fill="#7C837A" d="M289.008,461.943c0.613-0.313,1.227-0.625,1.84-0.938
		c-0.134,1.139-0.761,1.769-1.914,1.856C288.961,462.557,288.985,462.25,289.008,461.943z"/>
	<path fill-rule="evenodd" clip-rule="evenodd" fill="#FED864" d="M246.077,433.984c-7.077,2.105-14.154,4.211-21.231,6.316
		c-3.259-2.518-1.424-5.872-1.062-8.689c2.271-17.657,4.913-35.272,7.102-52.937c3.772-30.441,10.428-60.311,16.932-90.223
		c2.19-10.071,3.818-20.234,5.085-30.459c0.081-0.394,0.162-0.786,0.242-1.179c4.463,0.26,7.611,3.657,11.827,4.774
		c17.289,4.582,34.118,2.496,50.872-2.563c2.604-0.787,5.125-2.597,8.083-1.222c-10.273,18.854-20.507,37.729-30.834,56.553
		c-7.929,14.452-16.223,28.71-23.879,43.304c-4.497,8.573-5.982,18.297-8.783,27.511C255.5,401.397,250.847,417.709,246.077,433.984
		z"/>
	<path fill-rule="evenodd" clip-rule="evenodd" fill="#9EA49C" d="M323.928,257.805c-11.964,4.928-24.531,7.72-37.343,7.863
		c-11.727,0.131-23.746-0.464-33.439-8.852c-0.052-4.565-0.104-9.13-0.157-13.693c0.22-5.042,1.52-10.015,0.973-15.106
		c26.996-0.338,53.992-0.676,80.989-1.015c0.368,0.08,0.736,0.16,1.105,0.242c0.345,3.866-0.876,7.829,0.734,11.613
		C331.384,244.414,327.88,251.262,323.928,257.805z"/>
	<path fill-rule="evenodd" clip-rule="evenodd" fill="#CAD5C6" d="M311.917,438.909c-1.962,0.379-3.923,0.758-5.885,1.138
		c-0.33,0.334-0.708,0.597-1.142,0.779c-1.173,0.113-2.268,0.482-3.314,1.014c-3.528-0.088-6.856,1.438-10.39,1.297
		c-0.424,0.182-0.843,0.378-1.252,0.595c-0.664,0.21-1.353,0.236-2.042,0.252c-1.154-0.036-2.28,0.13-3.378,0.495
		c-0.939,0.163-1.834,0.534-2.8,0.577c-1.885,0.542-3.791,1.796-5.582-0.197c-0.381-0.62-0.762-1.239-1.143-1.859
		c-1.337-2.067-1.452-4.366-1.288-6.714c0.027-0.477,0.114-0.951,0.227-1.414c0.39-1.27,0.827-2.535,1.102-3.845
		c0.106-0.416,0.268-0.812,0.462-1.193c0.21-0.365,0.463-0.705,0.735-1.026c0.136-0.158,0.283-0.31,0.418-0.47
		c0.274-0.316,0.575-0.608,0.884-0.894c0.155-0.142,0.319-0.273,0.477-0.414c0.33-0.268,0.691-0.484,1.073-0.671
		c0.393-0.161,0.802-0.261,1.224-0.303c1.275-0.059,2.476-0.468,3.692-0.816c0.426-0.115,0.857-0.174,1.297-0.199
		c0.446-0.019,0.89-0.028,1.335-0.031c2.049,0.228,4.004-0.665,6.046-0.497c0.677,0.008,1.349-0.026,1.986-0.293
		c0.868-0.217,1.761-0.336,2.605-0.648c0.885-0.086,1.771-0.051,2.657-0.059c0.774-0.026,1.574,0.091,1.892-0.021
		c-0.317,0.291-1.182-0.121-1.967-0.003c-0.913,0.008-1.824-0.025-2.734,0.056c-1.115,0.421-2.318,0.493-3.438,0.892
		c-0.486,0.037-0.972,0.055-1.459,0.052c-3.382,0.663-6.888,0.156-10.238,1.096c-0.706,0.25-1.435,0.339-2.181,0.298
		c-0.492-0.063-0.951-0.222-1.372-0.487c-0.128-0.209-0.255-0.419-0.383-0.629c5.871-4.314,12.821-5.902,19.664-7.744
		c1.274-0.343,2.597-0.522,3.906-0.715c3.921-0.577,8.413-2.349,9.045,4.222c0.02,0.202,0.878,0.322,1.346,0.48
		c0.663,0.531,1.533,0.883,1.648,1.894c0.052,0.435,0.04,0.868-0.026,1.3c-0.158,0.848-0.318,1.696-0.366,2.563
		c-0.032,1.773-0.581,3.459-0.854,5.189c-0.15,1.515-0.161,3.023,0.183,4.521c0.082,0.444,0.092,0.888,0.045,1.336
		c-0.071,0.213-0.147,0.424-0.223,0.637C312.246,438.602,312.081,438.756,311.917,438.909z"/>
	<path fill-rule="evenodd" clip-rule="evenodd" fill="#EFECE2" d="M365.998,251.007c3.001,1.317,3.952,4.531,6.124,6.615
		c-1.444,3.89-3.07,7.725-4.303,11.682c-5.447,17.494-16.35,31.698-27.466,45.771c-0.836,1.058-1.662,2.507-3.831,2.5
		c6.653-12.276,13.183-24.34,19.728-36.394C361.383,271.729,363.236,261.223,365.998,251.007z"/>
	<path fill-rule="evenodd" clip-rule="evenodd" fill="#CAD4C6" d="M311.996,425.985c0.296-0.661,0.591-1.322,0.887-1.983
		c1.001-0.234,0.297-0.656,0.112-1.021c-0.331-0.658-0.662-1.315-0.993-1.974c0.314-0.047,0.629-0.058,0.945-0.03
		c0.257-0.232,0.562-0.341,0.904-0.344c0.251-0.011,0.271,0.549,0.637,0.258c-0.044-0.396,0.126-0.645,0.509-0.746
		c0.281-0.073,0.567-0.12,0.857-0.141c3.693-0.506,7.223,0.692,10.838,1.029c1.323,0.305,2.369,1.09,3.372,1.95
		c1.579,5.201,3.158,10.403,4.736,15.604c-5.919,0.82-11.793-0.837-17.707-0.323c-0.586,0.411-1.233,0.588-1.949,0.508
		c-0.713-0.145-1.295-0.507-1.77-1.054c-0.401-0.584-0.789-1.179-1.082-1.829c-0.144-0.459-0.225-0.928-0.252-1.407
		c-0.02-0.48-0.028-0.961-0.029-1.442C311.697,430.689,313.407,428.334,311.996,425.985z"/>
	<path fill-rule="evenodd" clip-rule="evenodd" fill="#BCCBB5" d="M385.041,402.919c-3.417,6.401-8.546,8.942-15.892,6.912
		c1.638-2.289,3.226-4.51,4.813-6.729c1.761-5.62,0.823-7.077-5.378-8.161c-4.454-0.779-9.299-0.794-11.676-6.982
		c6.854,2.794,13.504,1.34,19.872,2.311C383.346,391.269,388.623,395.183,385.041,402.919z"/>
	<path fill-rule="evenodd" clip-rule="evenodd" fill="#92193F" d="M327.044,422.139c-3.775-0.476-7.799,0.354-11.189-2.134
		c1.694-3.394,4.537-4.975,8.23-5.218c1.965,0.636,4.235-0.924,6.038,0.847c-0.039,2.104-0.079,4.208-0.119,6.313
		C329.069,422.801,328.061,422.541,327.044,422.139z"/>
	<path fill-rule="evenodd" clip-rule="evenodd" fill="#C6D3BE" d="M346.92,366.98c-2.111-1.917,0.269-5.062-1.902-6.964
		c0.495-1.115,0.835-2.332,1.982-3.019c0.279,0.216,0.38,0.44,0.302,0.673c-0.08,0.237-0.164,0.356-0.253,0.356
		C347.006,361.012,346.963,363.996,346.92,366.98z"/>
	<path fill-rule="evenodd" clip-rule="evenodd" fill="#C4CBBE" d="M267.993,427.908c-1.111,1.132-2.094,2.724-3.976,1.12
		C265.239,428.285,266.544,427.841,267.993,427.908z"/>
	<path fill-rule="evenodd" clip-rule="evenodd" fill="#E8EBDE" d="M382.009,369.989c-0.727-0.511-2.29-0.581-1.95-1.614
		c0.246-0.749,1.409-0.163,1.946,0.566c0.353,0.231,0.47,0.464,0.354,0.697C382.243,369.872,382.127,369.989,382.009,369.989z"/>
	<path fill-rule="evenodd" clip-rule="evenodd" fill="#DCE2D2" d="M380.964,354.093c0.304-0.334,0.607-0.668,0.91-1.001
		c0.743,0.236,1.808,0.752,1.368,1.42C382.613,355.47,381.634,354.841,380.964,354.093z"/>
	<path fill-rule="evenodd" clip-rule="evenodd" fill="#D8DFCE" d="M382.009,369.989c-0.001-0.349-0.002-0.697-0.004-1.047
		c1.102,0.055,2.265-0.075,3.021,1.009c-0.295,0.307-0.59,0.613-0.883,0.919C383.433,370.576,382.721,370.282,382.009,369.989z"/>
	<path fill-rule="evenodd" clip-rule="evenodd" fill="#E0E5D6" d="M347.049,358.027c-0.017-0.344-0.032-0.687-0.049-1.029
		c0.004-0.83,0.187-1.569,1-1.993l-0.005-0.003C347.993,356.108,348.127,357.257,347.049,358.027z"/>
	<path fill-rule="evenodd" clip-rule="evenodd" fill="#EFF0E3" d="M348,355.005c0.121-0.423,0.243-0.846,0.364-1.27
		c0.902,0.721-0.001,0.916-0.369,1.267L348,355.005z"/>
	<path fill-rule="evenodd" clip-rule="evenodd" fill="#CAD5C6" d="M314.188,421.085c-0.413-0.035-0.826-0.071-1.239-0.107
		c0.506-0.713,1.224-0.905,2.049-0.834c-0.012,0.315-0.027,0.63-0.048,0.943l-0.382,0.246L314.188,421.085z"/>
	<path fill-rule="evenodd" clip-rule="evenodd" fill="#353835" d="M276.672,425.842c0.133-0.265,0.265-0.53,0.395-0.797
		c0.324-0.094,0.649-0.187,0.975-0.28c-0.19,0.139-0.226,0.31-0.105,0.512c0.273,0.4,0.21,0.738-0.189,1.013
		C277.298,426.356,276.939,426.207,276.672,425.842z"/>
	<path fill-rule="evenodd" clip-rule="evenodd" fill="#EFECE2" d="M237.995,254.067c-8.453,9.438-13.5,20.973-19.548,33.005
		c-1.726-11.323,3.231-19.62,7.553-28.097C229.643,256.471,233.696,254.969,237.995,254.067z"/>
	<path fill-rule="evenodd" clip-rule="evenodd" fill="#7AACB5" d="M157.893,96.019c-0.242,7.691,0.997,15.436-0.836,23.07
		C157.389,111.402,155.967,103.65,157.893,96.019z"/>
	<path fill-rule="evenodd" clip-rule="evenodd" fill="#1E201F" d="M312.098,76.869c1.514,1.197,1.398,2.868,1.37,4.544
		c-0.631,36.879-1.262,73.759-1.854,110.64c-0.054,3.378-0.41,6.397-4.578,7.014c-1.248,0.682-2.608,0.423-3.92,0.408
		c-33.441-0.369-66.876,0.751-100.315,0.445c-5.021-0.046-9.881,1.091-14.856,1.076c-6.744-0.021-9.269-2.433-9.541-9.206
		c-0.181-4.505,1.041-8.916,0.907-13.433c-0.624-20.967,1.269-41.889,1.187-62.859c-0.033-8.439,0.807-16.925,0.853-25.411
		c0.037-6.833,1.373-8.167,8.002-8.799c1.491-0.142,2.979-0.307,4.459-0.521c38.185-1.359,76.318-3.877,114.498-5.405
		c0.978-0.134,1.862,0.09,2.646,0.696l-0.01,0.016C311.337,76.327,311.657,76.685,312.098,76.869z"/>
	<path fill-rule="evenodd" clip-rule="evenodd" fill="#6A867C" d="M310.955,76.056c-0.597,0.004-1.193,0.008-1.79,0.012
		c-0.909,0.563-1.931,0.464-2.91,0.407c-11.28-0.659-22.493,0.88-33.743,1.214c-12.685,0.377-25.375,1.301-38.067,1.944
		c-13.038,0.661-26.055,1.745-39.12,1.88c-0.565,0.006-0.901,0.347-1.302,0.62c-0.453,0.196-0.892,0.513-1.362,0.57
		c-9.569,1.165-9.473,1.161-9.698,10.985c-0.678,29.636-1.426,59.271-2.185,88.905c-0.072,2.823-0.53,5.637-0.594,8.459
		c-0.176,7.752,0.875,8.945,8.434,8.703c37.645-1.206,75.305-0.325,112.954-0.965c1.819-0.031,3.642,0.177,5.463,0.274
		c-1.452,1.198-3.191,0.73-4.809,0.752c-34.466,0.478-68.931,0.892-103.396,1.399c-6.481,0.095-12.96,0.476-19.433,0.844
		c-3.191,0.182-4.611-1.134-4.56-4.324c0.379-23.303-0.144-46.61,0.786-69.915c0.564-14.138,0.471-28.311,0.327-42.464
		c-0.047-4.659,1.236-6.312,6.15-6.449c29.93-0.837,59.852-1.976,89.772-3.108c11.131-0.421,22.25-1.128,33.378-1.629
		C307.323,74.081,309.705,73.472,310.955,76.056z"/>
	<path fill-rule="evenodd" clip-rule="evenodd" fill="#667F76" d="M312.098,76.869c-0.384-0.266-0.769-0.531-1.152-0.796
		C311.329,76.338,311.713,76.603,312.098,76.869z"/>
	<path fill-rule="evenodd" clip-rule="evenodd" fill="#EFECE2" d="M206.936,335.896c-0.011,1.92,0.698,2.77,2.832,3.219
		c3.965,0.833,6.094,3.199,5.489,7.813c-1.914,14.589-3.582,29.211-5.271,43.829c-0.894,7.738-2.774,8.461-11.057,8.456
		c-12.174-0.007-23.541-3.422-35.153-6.123c-5.082-1.183-6.893-3.999-6.772-8.724c0.247-9.609,1.521-19.126,2.565-28.666
		c0.63-5.757,1.114-11.539,1.376-17.322c0.15-3.299,1.581-6.048,4.605-6.117c4.558-0.104,5.82-2.126,5.653-6.1
		c-0.015-0.365,0.579-0.756,0.89-1.135c1.245,1.107,1.157,2.674,1.39,4.118c0.333,2.065,1.373,3.472,3.591,3.242
		c2.182-0.226,2.145-2.151,2.419-3.774c0.593-3.506-0.977-7.297,1.395-10.566c2.541,5.542,0.51,11.338,0.674,17.503
		c2.271-1.15,0.663-3.797,2.501-4.531c0.852,0.631,1.044,1.655,1.504,2.521c1.129,2.127,3.163,2.283,5.155,2.108
		c2.076-0.183,1.69-2.08,2.017-3.461c0.32-1.354,0.039-3.145,2.182-3.311c0,2.641,0,5.282,0,7.923
		c1.521-2.155,0.75-5.063,2.947-6.826c0.127,0.104,0.334,0.186,0.369,0.313C200.023,336.81,200.021,336.81,206.936,335.896z"/>
	<path fill-rule="evenodd" clip-rule="evenodd" fill="#DCD7C8" d="M252.903,257.993c1.891,12.007-2.268,23.299-4.416,34.77
		c-2.777,14.832-6.862,29.422-9.565,44.266c-3.088,16.953-5.397,34.053-7.82,51.121c-2.352,16.578-4.409,33.197-6.636,49.792
		c-0.118,0.878-0.133,1.631,0.381,2.356c-1.487,1.204-3.244,0.512-4.874,0.699c0.681-15.047,3.053-29.907,5.112-44.792
		c2.059-14.883,4.593-29.698,6.766-44.565c2.06-14.098,5.656-27.869,8.789-41.729c2.302-10.183,3.239-20.563,5.319-30.758
		C247.452,271.843,249.985,264.849,252.903,257.993z"/>
	<path fill-rule="evenodd" clip-rule="evenodd" fill="#ADAA9D" d="M194.922,328.875c-0.28,0.92-0.476,1.877-0.857,2.754
		c-0.853,1.961,1.83,5.904-3.117,5.596c-3.954-0.247-7.995-0.359-6.884-6.207c0.634-5.589,1.501-11.165,1.826-16.772
		c0.263-4.533,3.317-3.111,5.725-3.201c2.4-0.089,4.805-0.232,4.422,3.476C195.543,319.292,195.283,324.089,194.922,328.875z"/>
	<path fill-rule="evenodd" clip-rule="evenodd" fill="#AEAB9E" d="M180.889,318.046c-0.022,4.129,0.185,8.279-0.188,12.377
		c-0.134,1.478,0.509,4.679-2.854,3.94c-2.65-0.582-6.453-0.161-5.86-4.879c0.184-1.468,0.078-2.972,0.106-4.458
		c1.088-3.229,1.091-6.815,3.226-9.705c0.756-1.023,0.902-2.88,2.332-2.923c1.707-0.051,1.296,1.988,1.956,3.024
		C180.126,316.238,180.468,317.167,180.889,318.046z"/>
	<path fill-rule="evenodd" clip-rule="evenodd" fill="#AFAC9F" d="M206.936,335.896c-2.099,3.491-5.428,2.073-8.327,1.935
		c-1.802-0.087-1.55-1.819-1.443-3.072c0.136-1.604,0.461-3.192,0.705-4.787c1.712-2.381,2.404-5.47,5.588-7.742
		C205.046,326.88,206.733,331.159,206.936,335.896z"/>
	<path fill-rule="evenodd" clip-rule="evenodd" fill="#606151" d="M369.079,217.229c0.351-1.076,1.184-1.21,2.144-1.097
		C370.51,216.498,369.794,216.863,369.079,217.229z"/>
	<path fill-rule="evenodd" clip-rule="evenodd" fill="#35322D" d="M394.29,149.034c-2.946-0.991-6.232-0.99-9.521-1.148
		c-2.768-0.133-4.104-1.733-3.747-4.628c0.391-3.166,2.837-2.349,4.567-2.16c3.245,0.354,6.423,1.335,9.668,1.695
		c2.488,0.276,4.076,0.823,3.759,3.801C398.676,149.78,396.328,148.752,394.29,149.034z"/>
	<path fill-rule="evenodd" clip-rule="evenodd" fill="#36332E" d="M383.796,124.736c4.08,0.752,8.617,1.534,13.127,2.447
		c1.951,0.395,3.396,1.464,2.993,3.781c-0.513,2.944-2.46,1.732-4.204,1.476c-4.063-0.597-8.155-0.981-12.22-1.561
		c-2.184-0.311-3.714-1.369-3.436-3.94C380.279,124.885,381.219,123.922,383.796,124.736z"/>
	<path fill-rule="evenodd" clip-rule="evenodd" fill="#36332E" d="M395.534,124.128c-3.508-0.602-7.705-1.413-11.932-2.016
		c-2.768-0.396-3.876-2.212-3.363-4.493c0.61-2.72,2.814-0.671,4.112-0.545c4.246,0.414,8.441,1.329,12.674,1.928
		c2.313,0.328,3.09,1.659,2.917,3.776C399.686,125.928,397.61,123.971,395.534,124.128z"/>
	<path fill-rule="evenodd" clip-rule="evenodd" fill="#38352F" d="M395.973,140.177c-4.146-0.708-8.52-1.514-12.915-2.176
		c-1.967-0.297-3.063-1.214-2.965-3.228c0.127-2.599,1.856-2.127,3.577-1.839c4.384,0.735,8.763,1.614,13.181,1.985
		c2.783,0.234,3.351,1.537,3.113,3.857C399.643,141.915,397.568,139.884,395.973,140.177z"/>
	<path fill-rule="evenodd" clip-rule="evenodd" fill="#36332E" d="M397.247,108.015c-4.764-0.738-9.333-1.401-13.885-2.173
		c-2.103-0.356-2.419-1.983-2.306-3.787c0.116-1.833,1.3-2.163,2.785-1.875c4.694,0.91,9.367,1.935,14.072,2.788
		c2.426,0.44,2.121,2.188,2.063,3.81C399.892,109.16,398.159,107.927,397.247,108.015z"/>
	<path fill-rule="evenodd" clip-rule="evenodd" fill="#36332E" d="M397.235,116.129c-4.876-0.733-9.749-1.482-14.628-2.191
		c-2.115-0.308-2.026-1.57-1.745-3.253c0.308-1.842,0.787-2.471,2.882-1.999c4.484,1.011,9.057,1.638,13.599,2.382
		c2.056,0.337,2.656,1.651,2.657,3.531C400.001,116.904,398.483,116.176,397.235,116.129z"/>
	<path fill-rule="evenodd" clip-rule="evenodd" fill="#E2E4D8" d="M327.044,422.139c0.986-0.064,1.974-0.128,2.961-0.192
		c0.02,0.346,0.04,0.691,0.06,1.038C328.983,422.967,327.836,423.188,327.044,422.139z"/>
	<path fill-rule="evenodd" clip-rule="evenodd" fill="#2B2E2C" d="M276.672,425.842c0.443,0.054,0.887,0.106,1.331,0.159
		c0.28-0.354,0.612-0.652,0.989-0.902c0.568-0.105,1.138-0.21,1.706-0.314c1.352-0.392,2.719-0.325,4.089-0.133
		c0.516,0.398,0.587,0.865,0.215,1.4l-0.261,0.2l-0.312-0.105c-1.396,0.707-3.097-0.178-4.43,0.854l-0.313,0.183l-0.356-0.067
		c-0.556,0.087-0.933,0.484-1.364,0.787l-0.07,0.062c-0.259,0.371-0.565,0.696-0.921,0.975l-0.03,0.042
		c-0.287,0.387-0.7,0.678-0.87,1.152l0.063-0.095c-1.342,1.187-0.156,2.977-1.021,4.277c0.176,0.251,0.147,0.477-0.086,0.676
		c-1.599,0.894,1.17,5.109-3.049,4.01c0.064-1.676,0.13-3.352,0.195-5.026c0.275-0.422,0.631-0.802,0.696-1.333
		c0.069-0.552,0.14-1.104,0.21-1.655c0.533-0.583,0.376-1.456,0.864-2.058l-0.023,0.038c0.429-0.296,0.821-0.621,0.954-1.16
		l-0.081,0.096c0.616-0.208,0.962-0.642,1.059-1.279C276.129,426.362,276.4,426.103,276.672,425.842z"/>
	<path fill-rule="evenodd" clip-rule="evenodd" fill="#2F3230" d="M271.983,439.001c2.787,0.011,1.359-3.186,3.049-4.01
		c-0.014,2.67-0.028,5.339-0.042,8.008c-0.671-0.66-1.342-1.319-2.012-1.979c-0.417-0.262-0.624-0.729-1.005-1.024
		C271.977,439.664,271.979,439.332,271.983,439.001z"/>
	<path fill-rule="evenodd" clip-rule="evenodd" fill="#353835" d="M273.949,428.929c0.051,0.828-0.079,1.58-0.864,2.058
		C272.875,430.091,273.141,429.396,273.949,428.929z"/>
	<path fill-rule="evenodd" clip-rule="evenodd" fill="#353835" d="M274.88,427.807c-0.317,0.387-0.636,0.773-0.954,1.16
		C274.244,428.58,274.563,428.193,274.88,427.807z"/>
	<path fill-rule="evenodd" clip-rule="evenodd" fill="#2B2E2C" d="M271.974,439.995c0.335,0.342,0.67,0.683,1.005,1.023
		c-0.344-0.007-0.688-0.015-1.03-0.021C271.956,440.663,271.965,440.329,271.974,439.995z"/>
	<path fill-rule="evenodd" clip-rule="evenodd" fill="#2F3230" d="M272.875,432.642c-0.232,0.444-0.465,0.889-0.696,1.333
		C272.41,433.53,272.643,433.086,272.875,432.642z"/>
	<path fill-rule="evenodd" clip-rule="evenodd" fill="#353835" d="M275.857,426.623c-0.353,0.426-0.705,0.853-1.058,1.279
		C275.151,427.476,275.505,427.05,275.857,426.623z"/>
	<path fill-rule="evenodd" clip-rule="evenodd" fill="#A69591" d="M389.055,407.041c-0.392,0.949-1.054,1.611-2.047,1.92
		c-0.282-0.192-0.395-0.406-0.338-0.641c0.06-0.245,0.13-0.368,0.213-0.368c0.322-0.321,0.645-0.642,0.967-0.963
		C388.251,407.007,388.652,407.023,389.055,407.041z"/>
	<path fill-rule="evenodd" clip-rule="evenodd" fill="#8B4F62" d="M386.883,407.952c0.041,0.336,0.083,0.673,0.125,1.009
		c-0.22,0.134-0.439,0.267-0.659,0.4C385.952,408.674,386.392,408.303,386.883,407.952z"/>
	<path fill-rule="evenodd" clip-rule="evenodd" fill="#777D75" d="M289.85,442.869c3.813-1.306,7.745-1.908,11.764-2.002
		c1.051-0.536,2.329-0.064,3.346-0.752c0.358-0.022,0.716-0.046,1.073-0.068c0.381,0.392,0.762,0.783,1.143,1.176
		c-1.114,0.982-2.457,0.992-3.824,0.899c-1.031,0.575-2.319,0.056-3.316,0.776c-2.367,0.319-4.631,1.371-7.096,1.006
		C292.091,443.017,290.589,444.081,289.85,442.869z"/>
	<path fill-rule="evenodd" clip-rule="evenodd" fill="#6A7069" d="M276.133,444.858c1.997-0.223,3.995-0.445,5.993-0.668
		c0.587,0.542,1.689,0.002,2.066,0.984c-2.423,1.537-5.263,1.475-7.933,2.064C276.217,446.445,276.175,445.652,276.133,444.858z"/>
	<path fill-rule="evenodd" clip-rule="evenodd" fill="#262827" d="M282.831,460.896c1.067,0.271,2.352-0.119,3.129,1.03
		c-1.969,0.476-3.878,1.31-5.979,0.996c-0.593-0.861-1.528-0.94-2.442-1.069c0.149-0.255,0.315-0.499,0.498-0.732
		C279.586,459.99,281.212,460.503,282.831,460.896z"/>
	<path fill-rule="evenodd" clip-rule="evenodd" fill="#737972" d="M284.876,443.856c0.902-0.927,2.021-0.957,3.19-0.765
		c0.662,0.602,1.49,0.355,2.254,0.439c0.43,0.017,0.729,0.223,0.898,0.615c-1.626,0.951-3.416,0.916-5.208,0.865
		C285.646,444.613,284.977,444.515,284.876,443.856z"/>
	<path fill-rule="evenodd" clip-rule="evenodd" fill="#B7C1B4" d="M282.831,460.896c-1.598,0.075-3.195,0.149-4.794,0.225
		c1.473-1.824,3.435-1.012,5.253-0.974C283.143,460.399,282.989,460.649,282.831,460.896z"/>
	<path fill-rule="evenodd" clip-rule="evenodd" fill="#404340" d="M284.876,443.856c0.378,0.385,0.757,0.77,1.135,1.155
		c-0.606,0.054-1.212,0.108-1.818,0.162c-0.688-0.327-1.377-0.655-2.066-0.983C283.043,444.079,283.959,443.968,284.876,443.856z"/>
	<path fill-rule="evenodd" clip-rule="evenodd" fill="#787F76" d="M300.034,442.898c0.898-1.135,2.129-0.854,3.313-0.776
		C302.348,442.82,301.225,443.003,300.034,442.898z"/>
	<path fill-rule="evenodd" clip-rule="evenodd" fill="#636962" d="M291.219,444.146c-0.456-0.11-0.913-0.221-1.369-0.332
		c-0.21-0.226-0.258-0.422-0.144-0.588c0.104-0.151,0.202-0.228,0.294-0.228c0,0-0.148-0.129-0.149-0.13
		c1.063,0.245,2.315-0.075,3.088,1.035C292.365,443.985,291.792,444.066,291.219,444.146z"/>
	<path fill-rule="evenodd" clip-rule="evenodd" fill="#333633" d="M273.931,446.491c-0.145,0.25-0.282,0.49-0.421,0.73
		c-0.143-0.237-0.393-0.472-0.397-0.712c-0.006-0.238,0.234-0.482,0.367-0.725C273.628,446.018,273.776,446.25,273.931,446.491z"/>
	<path fill-rule="evenodd" clip-rule="evenodd" fill="#4B4142" d="M313.823,437.016c0.399,0.371,0.799,0.743,1.199,1.114
		c0.623,0.537,1.546,0.241,2.17,0.777c0.97,0.73,1.938,1.46,2.909,2.19c-1.053-0.119-2.107-0.239-3.162-0.36
		c-1.02-0.45-2.208-0.048-3.201-0.634l-0.237,0.086l-0.241-0.072c-0.452,0.303-0.872,0.247-1.263-0.117
		c-0.026-0.363-0.054-0.728-0.08-1.091l-0.012,0.044c0.305-0.156,0.435-0.35,0.391-0.577c-0.047-0.246-0.112-0.37-0.197-0.37
		c-0.209-0.265-0.304-0.566-0.284-0.904c0.073-0.152,0.146-0.305,0.217-0.459c0.304-0.175,0.626-0.22,0.966-0.137
		C313.34,436.564,313.619,436.729,313.823,437.016z"/>
	<path fill-rule="evenodd" clip-rule="evenodd" fill="#4F4B4A" d="M317.192,438.907c-0.84,0.066-1.627-0.015-2.17-0.777
		c0.689,0.046,1.38,0.091,2.071,0.136C317.096,438.484,317.128,438.698,317.192,438.907z"/>
	<path fill-rule="evenodd" clip-rule="evenodd" fill="#4F4B4A" d="M313.738,440.104c1.127-0.09,2.281-0.316,3.201,0.635
		C315.805,440.87,314.706,440.815,313.738,440.104z"/>
	<path fill-rule="evenodd" clip-rule="evenodd" fill="#4F4B4A" d="M311.997,440c0.42,0.039,0.839,0.077,1.261,0.116
		c-0.366,0.356-0.735,0.711-1.104,1.067c-0.111-0.147-0.222-0.295-0.331-0.444c0.042-0.222,0.085-0.444,0.127-0.666L311.997,440z"/>
	<path fill-rule="evenodd" clip-rule="evenodd" fill="#252726" d="M311.95,440.073c-0.025,0.227-0.067,0.449-0.126,0.667
		c-0.084-0.167-0.167-0.333-0.251-0.5C311.699,440.185,311.825,440.129,311.95,440.073z"/>
	<path fill-rule="evenodd" clip-rule="evenodd" fill="#505550" d="M284.992,425.049c-1.431-0.088-2.862-0.176-4.293-0.265
		c4.017-1.483,8.158-0.87,12.272-0.727c0.36,0.195,0.477,0.382,0.35,0.563c-0.123,0.176-0.247,0.265-0.374,0.265
		c-2.32,0.362-4.641,0.725-6.96,1.087C285.64,425.682,285.308,425.374,284.992,425.049z"/>
	<path fill-rule="evenodd" clip-rule="evenodd" fill="#7C827A" d="M311.996,425.985c1.988,2.515,0.774,5.352,0.814,8.063
		c-1.709,0.329-0.974-1.475-1.728-1.979C311.388,430.04,311.691,428.013,311.996,425.985z"/>
	<path fill-rule="evenodd" clip-rule="evenodd" fill="#4E524D" d="M311.083,432.068c0.576,0.659,1.152,1.319,1.728,1.979
		c0.008,0.345,0.016,0.689,0.023,1.034c-0.376,0.542-0.271,1.241-0.589,1.802l-0.431,0.218
		C310.473,435.584,310.821,433.819,311.083,432.068z"/>
	<path fill-rule="evenodd" clip-rule="evenodd" fill="#9EA79C" d="M293.897,423.846c0.845-0.969,1.974-0.867,3.089-0.815
		c0.365,0.209,0.498,0.434,0.398,0.676c-0.104,0.249-0.211,0.374-0.325,0.374c-0.562,0.727-1.316,0.917-2.187,0.791
		C294.537,424.539,293.909,424.485,293.897,423.846z"/>
	<path fill-rule="evenodd" clip-rule="evenodd" fill="#353835" d="M280,427c1.243-1.487,2.88-0.935,4.428-0.854
		C283.072,427.049,281.548,427.088,280,427z"/>
	<path fill-rule="evenodd" clip-rule="evenodd" fill="#353835" d="M275.117,434.315c-0.048-1.519-0.653-3.17,1.021-4.277
		C275.799,431.464,275.458,432.89,275.117,434.315z"/>
	<path fill-rule="evenodd" clip-rule="evenodd" fill="#787F76" d="M304.959,440.115c-0.915,1.129-2.152,0.832-3.343,0.752
		C302.605,440.068,303.766,440.016,304.959,440.115z"/>
	<path fill-rule="evenodd" clip-rule="evenodd" fill="#ABB5A8" d="M297.06,424.08c-0.024-0.35-0.049-0.7-0.073-1.05
		c0.996,0.001,1.992,0.001,2.989,0.002c0.354,0.208,0.473,0.416,0.354,0.624c-0.117,0.207-0.234,0.312-0.354,0.312
		C299.004,424.005,298.031,424.043,297.06,424.08z"/>
	<path fill-rule="evenodd" clip-rule="evenodd" fill="#B9C3B6" d="M299.976,423.968c0.015-0.313,0.015-0.624,0-0.936
		c0.73,0.057,1.462,0.113,2.192,0.169c0,0.199,0,0.398,0,0.598C301.438,423.855,300.706,423.911,299.976,423.968z"/>
	<path fill-rule="evenodd" clip-rule="evenodd" fill="#787F77" d="M293.897,423.846c0.325,0.342,0.651,0.685,0.977,1.026
		c-0.643,0.004-1.285,0.009-1.927,0.014c0.036-0.275,0.044-0.551,0.024-0.828C293.271,423.945,293.579,423.875,293.897,423.846z"/>
	<path fill-rule="evenodd" clip-rule="evenodd" fill="#494D49" d="M290,442.999c-0.015,0.279-0.064,0.552-0.149,0.817
		c-0.715,0.052-1.414,0.069-1.784-0.725C288.711,443.061,289.355,443.03,290,442.999z"/>
	<path fill-rule="evenodd" clip-rule="evenodd" fill="#B09D9B" d="M312.995,422.981c0.624,0.274,1.054,0.646,0.616,1.374
		c-0.013,0.021-0.475-0.229-0.728-0.354C312.92,423.662,312.957,423.321,312.995,422.981z"/>
	<path fill-rule="evenodd" clip-rule="evenodd" fill="#353835" d="M277.967,427.902c0.454-0.263,0.909-0.525,1.364-0.787
		C278.876,427.378,278.422,427.641,277.967,427.902z"/>
	<path fill-rule="evenodd" clip-rule="evenodd" fill="#4F4B4A" d="M312.099,438.006c0.079,0.25,0.182,0.496,0.216,0.751
		c0.007,0.046-0.266,0.13-0.409,0.196C311.964,438.637,312.028,438.32,312.099,438.006z"/>
	<path fill-rule="evenodd" clip-rule="evenodd" fill="#353835" d="M276.976,428.938c0.307-0.325,0.613-0.649,0.921-0.975
		C277.589,428.289,277.282,428.613,276.976,428.938z"/>
	<path fill-rule="evenodd" clip-rule="evenodd" fill="#2F3230" d="M278.992,425.099c-0.33,0.301-0.66,0.602-0.989,0.902
		c-0.006-0.243-0.028-0.484-0.067-0.725C278.287,425.217,278.64,425.157,278.992,425.099z"/>
	<path fill-rule="evenodd" clip-rule="evenodd" fill="#353835" d="M276.075,430.133c0.29-0.384,0.58-0.769,0.87-1.152
		C276.655,429.364,276.365,429.749,276.075,430.133z"/>
	<path fill-rule="evenodd" clip-rule="evenodd" fill="#2F3230" d="M284.992,425.049c0.332,0.308,0.663,0.616,0.995,0.924
		c-0.329,0.026-0.657,0.053-0.985,0.079C284.999,425.717,284.996,425.383,284.992,425.049z"/>
	<path fill-rule="evenodd" clip-rule="evenodd" fill="#2C2E2C" d="M312.245,436.884c-0.174-0.722-0.089-1.358,0.589-1.802
		c0.178,0.233,0.26,0.496,0.248,0.788c0.303,0.411,0.263,0.784-0.122,1.12C312.716,436.996,312.478,436.961,312.245,436.884z"/>
	<path fill-rule="evenodd" clip-rule="evenodd" fill="#B58F94" d="M314.188,421.085c0.254-0.013,0.509-0.013,0.763,0.002
		C314.694,421.542,314.439,421.812,314.188,421.085z"/>
	<path fill-rule="evenodd" clip-rule="evenodd" fill="#4F4B4A" d="M312.96,436.99c0.04-0.373,0.081-0.746,0.122-1.12
		c0.247,0.382,0.494,0.764,0.741,1.146C313.535,437.013,313.247,437.004,312.96,436.99z"/>
	<path fill-rule="evenodd" clip-rule="evenodd" fill="#FEEDD8" d="M247.172,166.015c-15.489-0.021-28.444-3.439-39.863-11.877
		c-2.832-2.093-5.425-4.429-7.506-7.261c-1.014-1.379-2.972-3.298-0.957-4.667c1.889-1.283,4.468-3.669,7.052-0.778
		c15.98,17.874,64.405,18.361,83.098-2.212c2.418-2.661,4.793-0.963,6.724,0.071c2.524,1.354,0.883,3.525-0.236,5.042
		c-8.81,11.943-21.268,17.702-35.377,20.493C255.371,165.762,250.545,166.127,247.172,166.015z"/>
	<path fill-rule="evenodd" clip-rule="evenodd" fill="#FBDD63" d="M229.988,123.694c0.282,4.095-1.199,6.386-5.597,6.346
		c-4.961-0.045-5.435-3.212-5.423-7.032c0.011-3.736,1.359-5.996,5.454-6.03C229.192,116.936,230.33,119.728,229.988,123.694z"/>
	<path fill-rule="evenodd" clip-rule="evenodd" fill="#FBDD63" d="M259.708,122.334c-0.039-3.789,1.016-6.429,5.579-6.389
		c4.468,0.039,5.641,2.515,5.614,6.382c-0.033,4.928-1.586,6.731-5.825,6.688C260.505,128.968,259.72,125.987,259.708,122.334z"/>
	<path fill-rule="evenodd" clip-rule="evenodd" fill="#667F76" d="M194.023,82.134c0.612-0.965,1.575-1.188,2.599-1.113
		c8.971,0.655,17.86-0.812,26.79-1.167c20.818-0.828,41.626-2.046,62.433-3.134c7.785-0.407,15.546-0.444,23.319-0.653
		c-7.134,1.833-14.484,0.983-21.721,1.574c-15.858,1.294-31.796,1.631-47.7,2.38C224.504,80.74,209.298,82.178,194.023,82.134z"/>
</g>
</svg>
