<?xml version="1.0" encoding="utf-8"?>
<!-- Generator: Adobe Illustrator 16.0.0, SVG Export Plug-In . SVG Version: 6.00 Build 0)  -->
<!DOCTYPE svg PUBLIC "-//W3C//DTD SVG 1.1//EN" "http://www.w3.org/Graphics/SVG/1.1/DTD/svg11.dtd">
<svg version="1.1" id="Слой_10" xmlns="http://www.w3.org/2000/svg" xmlns:xlink="http://www.w3.org/1999/xlink" x="0px"
	 y="0px" width="500px" height="500px" viewBox="0 0 500 500" enable-background="new 0 0 500 500" xml:space="preserve">
<g>
	<path fill-rule="evenodd" clip-rule="evenodd" fill="#68A3AE" d="M453.828,276.973c0.032,21.159,0.762,42.347-0.106,63.468
		c-0.795,19.323-11.298,33.737-27.561,43.514c-18.133,10.9-36.729,21.029-55.129,31.482c-0.559,0.317-1.192,0.502-1.791,0.748
		c-3.008,0.704-5.52-0.524-7.968-2.029c-22.502-13.83-44.926-27.789-67.399-41.665c-1.372-0.847-3.027-1.512-3.522-3.341
		c0.022-3.614,3.112-3.975,5.454-4.896c16.836-6.623,31.424-16.646,44.235-29.292c4.739-4.678,8.748-10.041,12.533-15.513
		c2.813-4.064,2.41-6.083-1.898-8.564c-12.546-7.223-24.886-14.813-37.687-21.586c-5.313-2.813-6.593-2.562-10.218,1.976
		c-19.988,25.018-55.361,31.804-82.85,15.817c-16.458-9.571-26.779-24.012-30.95-42.792c-6.5-29.26,9.841-60.043,37.299-72.041
		c27.63-12.073,58.974-3.286,76.372,19.055c3.36,4.313,5.318,4.391,10.317,1.745c6.908-3.657,13.345-8.163,20.516-11.347
		c3.52,0.378,6.726,1.569,9.759,3.435c34.333,21.11,68.664,42.225,102.685,63.837C449.176,271.052,452.427,273.086,453.828,276.973z
		"/>
	<path fill-rule="evenodd" clip-rule="evenodd" fill="#4B8691" d="M290.873,368.896c7.059,1.913,12.522,6.733,18.582,10.406
		c20.025,12.136,39.871,24.565,59.786,36.883c-12.567,8.342-25.975,15.253-38.983,22.84c-17.466,10.188-35.095,20.097-52.646,30.138
		c-16.563,9.477-33.853,10.181-50.458,1.474c-21.995-11.532-43.257-24.462-64.831-36.797c-28.47-16.277-56.997-32.456-85.383-48.877
		c-18.396-10.642-29.051-26.07-28.973-48.067c0.134-37.65,0.034-75.301,0.044-112.951c0-1.996,0.11-3.991,0.169-5.987
		c2.379-2.26,4.365-0.405,6.266,0.742c18.242,11.01,36.338,22.258,54.397,33.563c7.583,4.748,15.729,8.705,21.969,15.382
		c3.176,12.755,5.604,25.749,12.026,37.464c15.281,27.874,36.868,48.516,67.185,59.542c12.193,4.435,24.708,7.504,37.515,7.515
		c11.888,0.01,23.979-0.248,35.606-3.898C285.61,367.491,288.56,365.691,290.873,368.896z"/>
	<path fill-rule="evenodd" clip-rule="evenodd" fill="#7AADB6" d="M453.828,276.973c-26.608-16.655-53.204-33.331-79.83-49.958
		c-11.552-7.214-23.176-14.314-34.74-21.508c-1.618-1.007-3.298-1.524-5.178-1.478c-1.177-2.645,0.881-3.52,2.543-4.543
		c4.396-2.707,8.794-5.405,13.379-7.798c5.409-2.824,5.948-4.871,2.506-9.788c-9.877-14.104-22.186-25.661-36.846-34.685
		c-20.604-12.683-43.241-17.885-67.196-17.682c-8.828,0.075-17.525,1.866-26.167,3.697c-2.064,0.437-4.175,1.438-6.309,0.164
		c-5.945-5.9-13.509-9.444-20.475-13.825c-17.678-11.116-35.558-21.911-53.198-33.088c-1.882-1.193-4.418-2.128-3.283-5.267
		c29.375-16.832,58.243-34.583,88.323-50.136c16.207-8.38,33.106-7.951,49.055,0.992c32.418,18.18,64.578,36.821,96.828,55.3
		c17.044,9.767,34.025,19.642,51.085,29.382c19.476,11.12,29.744,27.577,29.678,50.249
		C453.896,203.658,453.882,240.315,453.828,276.973z"/>
	<path fill-rule="evenodd" clip-rule="evenodd" fill="#68A3AE" d="M139.034,81.213c11.844,8.349,24.476,15.449,36.735,23.139
		c12.836,8.052,25.767,15.952,38.622,23.975c1.229,0.767,3.534,1.366,1.603,3.651c0.567,3.169-2.126,3.439-3.952,4.042
		c-12.631,4.167-23.857,10.869-34.345,18.878c-26.111,19.942-41.104,46.437-46.223,78.731c-1.572,9.919-1.08,19.88-0.779,29.836
		c0.058,1.906,0.367,3.694-1.87,4.561c-11.417-8.287-23.758-15.12-35.702-22.576c-14.896-9.3-29.955-18.341-44.943-27.494
		c-0.049-19.982-0.917-40.006,0.104-59.934c0.87-16.974,10.52-30.089,24.649-38.761C94.592,105.969,116.964,93.837,139.034,81.213z"
		/>
	<path fill-rule="evenodd" clip-rule="evenodd" fill="#FEFEFE" d="M128.825,268.026c-7.116-57.021,23.277-110.063,75.524-131.728
		c3.822-1.584,7.76-2.886,11.645-4.32c12.347-2.646,24.731-5.234,37.438-4.847c44.221,1.347,78.791,20.292,103.642,57
		c2.531,3.738,2.022,5.583-1.859,7.665c-7.169,3.844-14.103,8.13-21.134,12.232c-7.83,4.399-15.749,8.651-23.45,13.265
		c-3.367,2.017-5.243,1.866-7.743-1.528c-15.723-21.341-37.168-30.446-62.939-25.174c-25.424,5.202-41.971,21.457-48.36,46.999
		c-9.301,37.181,20.254,74.975,58.564,75.455c22.354,0.279,39.964-8.552,53.009-26.547c2.313-3.191,4.177-3.586,7.693-1.5
		c14.603,8.664,29.313,17.16,44.218,25.288c4.241,2.313,3.916,4.165,1.663,7.542c-15.77,23.646-36.973,40.318-63.661,50.05
		c-0.757,0.275-1.468,0.676-2.2,1.018c-13.282,4.081-26.948,5.728-40.764,5.795c-17.53,0.087-34.36-3.817-50.075-11.432
		c-38.945-18.869-62.715-49.639-70.915-92.254C128.931,270.029,128.919,269.021,128.825,268.026z"/>
</g>
</svg>
