<?xml version="1.0" encoding="utf-8"?>
<!-- Generator: Adobe Illustrator 16.0.0, SVG Export Plug-In . SVG Version: 6.00 Build 0)  -->
<!DOCTYPE svg PUBLIC "-//W3C//DTD SVG 1.1//EN" "http://www.w3.org/Graphics/SVG/1.1/DTD/svg11.dtd">
<svg version="1.1" id="Слой_11" xmlns="http://www.w3.org/2000/svg" xmlns:xlink="http://www.w3.org/1999/xlink" x="0px"
	 y="0px" width="500px" height="500px" viewBox="0 0 500 500" enable-background="new 0 0 500 500" xml:space="preserve">
<g>
	<path fill-rule="evenodd" clip-rule="evenodd" fill="#4B8691" d="M369.242,416.184c-12.566,8.343-25.975,15.253-38.983,22.84
		c-17.467,10.188-35.096,20.097-52.646,30.139c-16.563,9.477-33.853,10.181-50.458,1.475
		c-21.996-11.531-43.257-24.462-64.832-36.797c-28.47-16.277-56.996-32.457-85.383-48.877
		c-18.398-10.642-29.051-26.07-28.974-48.067C48.1,299.246,48,261.595,48.011,223.944c0-1.996,0.11-3.992,0.169-5.987
		c2.402-2.124,4.38-0.347,6.295,0.813c18.342,11.115,36.576,22.409,54.746,33.804c7.432,4.661,15.464,8.48,21.504,15.133
		c3.294,13.054,5.808,26.364,12.504,38.308c15.336,27.351,36.696,47.746,66.627,58.632c12.815,4.661,25.958,7.793,39.452,7.642
		c12.897-0.146,25.962-0.793,38.39-5.221c0.933-0.332,1.938-0.479,2.937-0.574c7.935,2.277,14.498,7.19,21.366,11.435
		c17.95,11.092,35.896,22.192,53.838,33.299C367.745,412.406,369.566,413.527,369.242,416.184z"/>
	<path fill-rule="evenodd" clip-rule="evenodd" fill="#7AADB6" d="M139.038,81.212c29.374-16.832,58.24-34.581,88.319-50.135
		c16.206-8.38,33.106-7.951,49.053,0.991c32.417,18.179,64.576,36.819,96.824,55.298c17.044,9.766,34.024,19.641,51.083,29.381
		c19.666,11.229,29.816,27.875,29.705,50.743c-0.178,36.489-0.141,72.979-0.194,109.468c-1.773,1.31-3.392,0.717-5.051-0.318
		c-13.076-8.163-26.012-16.548-39.029-24.804c-1.949-1.236-4.229-2.714-4.747-5.449c0.07-1.695,0.976-2.875,2.523-3.353
		c3.341-1.031,4.119-3.447,4.028-6.583c-0.085-2.896-1.373-4.656-4.171-5.437c-1.707-0.476-2.938-1.654-3.389-3.374
		c-0.817-3.112-2.907-4.133-5.924-4.219c-3.205-0.091-5.396,0.826-6.397,4.195c-0.595,2-2.3,3.217-4.492,3.474
		c-3.485,0.409-6.972,0.405-10.457,0c-2.174-0.252-3.904-1.387-4.53-3.418c-1.109-3.6-3.678-4.342-6.952-4.287
		c-2.321,0.04-4.681,0.069-6.785-1.211c-3.78-5.641-10.147-7.802-15.399-11.471c-3.217-2.248-7.216-3.396-9.63-6.794
		c-0.179-2.458,1.595-3.44,3.342-4.476c4.433-2.627,8.767-5.412,13.375-7.748c5.647-2.863,6.114-4.559,2.605-9.572
		c-9.95-14.219-22.323-25.91-37.111-34.99c-20.569-12.629-43.161-17.861-67.08-17.661c-8.646,0.072-17.164,1.802-25.633,3.566
		c-2.227,0.464-4.499,1.481-6.809,0.21c-7.729-6.642-16.81-11.241-25.352-16.654c-16.024-10.156-32.332-19.859-48.31-30.09
		C140.557,85.279,138.062,84.335,139.038,81.212z"/>
	<path fill-rule="evenodd" clip-rule="evenodd" fill="#68A3AE" d="M334.08,204.028c5.23,0.008,8.517,4.039,12.681,6.224
		c4.085,2.144,7.87,4.853,11.884,7.145c3.403,1.945,0.998,2.638-0.621,3.581c3.478,4.71,2.954,7.776-2.134,10.217
		c-2.739,1.314-3.452,3.326-3.417,6.015c0.033,2.533,0.735,4.698,3.413,5.459c3.311,0.941,4.335,3.283,4.418,6.398
		c0.063,2.33,0.081,4.656-0.016,6.985c-0.121,2.884-0.988,5.215-4.069,6.142c-2.857,0.86-3.736,3.018-3.735,5.777
		c0.001,2.738,0.792,4.938,3.678,5.806c2.081,0.627,3.425,1.939,4.046,4.027c0.857,2.877,3.018,3.722,5.774,3.723
		c2.75,0.002,4.938-0.816,5.799-3.691c0.917-3.063,3.196-4.007,6.102-4.123c2.829-0.114,5.652-0.127,8.481,0.027
		c2.739,0.148,4.922,1.15,5.664,3.98c0.783,2.985,2.8,3.836,5.597,3.833c2.902-0.003,5.302-0.66,6.202-3.83
		c0.601-2.112,2.031-3.346,4.097-3.971c2.908-0.88,3.616-3.133,3.596-5.852c-0.02-2.521-0.827-4.362-3.296-5.606
		c-5.414-2.728-6.459-10.752-2.159-15.286c15.922,9.982,31.844,19.966,47.765,29.949c0.033,21.16,0.761,42.349-0.106,63.473
		c-0.793,19.325-11.291,33.742-27.556,43.521c-18.133,10.901-36.73,21.031-55.133,31.484c-0.559,0.317-1.192,0.502-1.791,0.748
		c-24.157-14.935-48.313-29.874-72.477-44.797c-1.828-1.129-3.612-2.413-5.895-2.49c-0.385-2.729,1.761-3.378,3.566-4.059
		c14.674-5.532,27.594-13.881,39.497-24.002c7.442-6.328,13.342-13.942,18.988-21.772c2.796-3.878,2.386-5.572-1.883-8.029
		c-12.699-7.308-25.186-14.989-38.138-21.851c-5.622-2.978-6.246-2.938-10.048,1.924c-8.638,11.043-19.837,18.448-33.18,21.932
		c-22.598,5.898-43.141,1.731-60.828-14.313c-15.23-13.815-22.033-31.159-21.061-51.341c0.884-18.354,8.95-33.549,23.001-45.453
		c11.91-10.09,25.854-15.136,41.326-15.158c20.176-0.029,36.746,8.246,49.72,23.62c4.818,5.709,5.448,5.901,11.981,2.188
		c4.777-2.715,9.623-5.305,14.313-8.176C329.974,203.276,331.974,202.159,334.08,204.028z"/>
	<path fill-rule="evenodd" clip-rule="evenodd" fill="#68A3AE" d="M139.038,81.212c11.949,8.371,24.635,15.571,36.993,23.293
		c12.794,7.994,25.657,15.877,38.451,23.873c1.189,0.744,3.582,1.335,1.512,3.601c0.454,3.477-2.582,3.516-4.513,4.203
		c-18.393,6.544-34.28,16.984-47.748,30.999c-17.981,18.71-28.546,41.102-32.381,66.759c-1.439,9.631-0.896,19.272-0.819,28.92
		c0.016,1.975,0.748,4.063-1.708,5.169c-11.554-8.382-24.042-15.294-36.122-22.843c-14.752-9.219-29.674-18.164-44.523-27.228
		c-0.049-19.982-0.918-40.007,0.104-59.935c0.87-16.975,10.521-30.089,24.651-38.761C94.595,105.968,116.968,93.836,139.038,81.212z
		"/>
	<path fill-rule="evenodd" clip-rule="evenodd" fill="#FEFEFE" d="M128.825,268.028c-7.101-57.047,23.276-110.062,75.525-131.73
		c3.821-1.584,7.759-2.886,11.644-4.319c12.346-2.645,24.729-5.23,37.436-4.852c44.034,1.311,78.479,20.188,103.399,56.569
		c2.763,4.033,2.335,6.07-2.053,8.343c-7.071,3.664-13.814,7.96-20.696,11.989c-7.83,4.399-15.749,8.651-23.451,13.265
		c-3.367,2.017-5.241,1.865-7.741-1.529c-15.725-21.337-37.169-30.447-62.941-25.173c-25.423,5.202-41.971,21.456-48.359,47
		c-9.301,37.186,20.254,74.979,58.566,75.454c22.354,0.277,39.963-8.555,53.008-26.549c2.315-3.193,4.179-3.581,7.693-1.496
		c14.459,8.58,29.02,17.005,43.791,25.029c4.563,2.479,4.396,4.437,1.834,8.23c-15.805,23.401-36.888,39.959-63.41,49.618
		c-0.756,0.275-1.468,0.677-2.199,1.019c-13.281,4.082-26.949,5.727-40.763,5.795c-17.53,0.086-34.359-3.818-50.074-11.433
		c-38.944-18.869-62.713-49.639-70.915-92.252C128.931,270.031,128.919,269.022,128.825,268.028z"/>
	<path fill-rule="evenodd" clip-rule="evenodd" fill="#FED864" d="M406.063,247.009c-0.056,2.327,0.02,4.666-0.195,6.979
		c-0.374,4.018,0.14,6.841,5.377,6.086c3.229-0.465,2.954,2.469,2.464,4.14c-1.151,3.927,3.376,9.864-2.423,11.587
		c-3.697,1.098-6.191,1.024-5.416,5.63c0.327,1.944-0.992,2.589-2.767,2.57c-2.662-0.027-5.336-0.149-7.987,0.035
		c-3.777,0.263-6.826,0.002-5.582-5.122c0.112-0.461,0.155-1.256-0.1-1.44c-3.992-2.892-8.538-0.774-12.812-1.3
		c-2.794-0.344-2.772,1.915-2.538,3.738c0.444,3.447-1.135,4.391-4.274,4.127c-2.313-0.195-4.678-0.231-6.983,0.007
		c-3.525,0.366-5.47-0.578-4.847-4.546c0.489-3.116-1.363-3.702-3.899-3.352c-3.029,0.418-4.28-0.791-3.98-3.892
		c0.206-2.145,0.211-4.34,0.015-6.485c-0.349-3.813,0.148-5.732,5.051-6.046c5.921-0.379,2.011-5.774,2.621-8.793
		c0.372-1.843,2.145-6.212-2.59-5.841c-5.056,0.397-5.439-2.132-5.079-5.948c0.188-1.979,0.198-4.01-0.017-5.985
		c-0.363-3.35,0.58-5.136,4.313-4.455c2.985,0.544,3.825-1.053,3.603-3.73c-0.11-1.322-0.003-2.662,0.006-3.994
		c3.986-0.059,7.979-0.009,11.957-0.212c2.896-0.148,4.521,0.697,4.063,3.886c-0.49,3.431,1.24,4.402,4.354,4.133
		c1.979-0.17,3.996-0.169,5.979-0.011c3.489,0.279,6.036-0.165,5.08-4.712c-0.481-2.291,0.645-3.382,3.044-3.291
		c2.656,0.101,5.337,0.233,7.974-0.012c3.858-0.358,6.094,0.537,5.476,5.048c-0.411,3,1.854,3.1,3.944,2.893
		c3.113-0.308,4.214,1.094,3.949,4.063c-0.147,1.649-0.188,3.339-0.009,4.98c0.511,4.67,0.108,8.384-6.187,7.315
		C406.416,244.85,405.972,245.848,406.063,247.009z"/>
	<path fill-rule="evenodd" clip-rule="evenodd" fill="#69A4AE" d="M382.314,244.947c1.164-0.002,2.328-0.007,3.492,0
		c0.665,0.003,1.577-0.254,1.957,0.082c4.045,3.583,0.693,8.297,1.761,12.403c0.599,2.304-1.326,2.634-3.158,2.57
		c-0.83-0.029-1.663,0-2.494,0.002c-9.869,0.025-9.716,0.022-9.915-10.027c-0.074-3.741,0.694-5.754,4.87-5.056
		C379.96,245.11,381.15,244.949,382.314,244.947z"/>
</g>
</svg>
